<?xml version="1.0" encoding="UTF-8"?><svg id="b" xmlns="http://www.w3.org/2000/svg" width="924.94" height="290.08" viewBox="0 0 924.94 290.08"><g id="c"><path d="M10.5,240.07H2.6c-1.5,0-2.6-.7-2.6-2.4s1.1-2.4,2.6-2.4h21c1.33,0,2.4,1.07,2.4,2.4s-1.07,2.4-2.4,2.4h-7.91v35c.17,1.37-.81,2.62-2.18,2.78-.14.02-.28.02-.42.02-1.38.07-2.55-1-2.62-2.38,0-.14,0-.28.02-.42v-35Z" fill="#0a0a0a"/><path d="M50,257.87c0-4.03-3.27-7.3-7.3-7.3-4.03,0-7.3,3.27-7.3,7.3h0v17.2c0,1.44-1.16,2.6-2.6,2.6-1.44,0-2.6-1.16-2.6-2.6h0v-40.6c0-1.44,1.16-2.6,2.6-2.6,1.44,0,2.6,1.16,2.6,2.6h0v15.6c3.61-4.95,10.55-6.05,15.51-2.44,3.23,2.35,4.95,6.26,4.49,10.24v17.2c.29,1.46-.67,2.88-2.13,3.17-1.46.29-2.88-.67-3.17-2.13-.07-.34-.07-.69,0-1.03l-.1-17.2Z" fill="#0a0a0a"/><path d="M65,263.77c-.61,4.88,2.84,9.33,7.72,9.94.52.07,1.05.09,1.58.06,7,0,8.7-4.3,10.7-4.3,1.15.1,2.01,1.13,1.9,2.28,0,0,0,.01,0,.02,0,2.6-6.5,6.5-12.7,6.5-8.01-.08-14.43-6.64-14.35-14.65,0-.65.06-1.31.15-1.95-.67-8.2,5.43-15.39,13.64-16.06.19-.02.38-.03.56-.04,7.89.36,13.99,7.05,13.63,14.94,0,.15-.02.31-.03.46,0,1.8-.6,2.8-2.9,2.8h-19.9ZM82.29,260.07c.61-4.88-2.84-9.33-7.72-9.94-.23-.03-.45-.05-.68-.06-6.4,0-8.7,4.9-8.9,10h17.3Z" fill="#0a0a0a"/><path d="M112.59,275.07c0,1.44-1.16,2.6-2.6,2.6s-2.6-1.16-2.6-2.6h0v-37c-.18-1.37.79-2.62,2.16-2.8.21-.03.43-.03.64,0h10c6.67-.45,12.44,4.59,12.89,11.25,0,.05,0,.1,0,.15.62,5.99-3.73,11.34-9.72,11.96-.59.06-1.18.07-1.78.04h-2.6l13.5,14.8c.65.63,1.01,1.5,1,2.4-.1,1.21-1.17,2.11-2.38,2,0,0-.01,0-.02,0-.91-.02-1.76-.46-2.3-1.2l-16.2-17.7v16.1ZM112.59,255.07h7.4c5.5,0,7.9-2.3,7.9-7.8-.1-4.09-3.49-7.32-7.58-7.21-.11,0-.21,0-.32.01h-7l-.4,15Z" fill="#0a0a0a"/><path d="M141.49,263.77c-.56,4.94,2.99,9.4,7.93,9.95.49.06.98.07,1.47.05,6.9,0,8.7-4.3,10.6-4.3s1.9.8,1.9,2.3-6.4,6.5-12.6,6.5c-8.01.06-14.54-6.39-14.6-14.4,0-.6.03-1.2.1-1.8-.72-8.14,5.29-15.33,13.43-16.05.26-.02.51-.04.77-.05,7.94.42,14.04,7.2,13.61,15.14,0,.09,0,.17-.02.26,0,1.8-.7,2.8-2.9,2.8l-19.7-.4ZM158.89,259.77c.61-4.88-2.84-9.33-7.72-9.94-.23-.03-.45-.05-.68-.06-6.5,0-8.8,4.9-9,10h17.4Z" fill="#0a0a0a"/><path d="M194.99,275.27c.62,7.54-5,14.15-12.54,14.77-.59.05-1.17.06-1.76.03-5.4,0-12.1-3.1-12.1-5.8-.17-1.15.63-2.21,1.77-2.38.14-.02.28-.03.43-.02,2.4,0,4.7,3.7,10,3.7,4.75.12,8.69-3.63,8.81-8.38.01-.54-.02-1.08-.11-1.62v-2.7h0c-1.64,2.85-4.71,4.57-8,4.5-8.11-.4-14.36-7.29-13.96-15.4.01-.27.03-.53.06-.8-.78-8.08,5.13-15.27,13.21-16.05.23-.02.46-.04.69-.05,3.13.07,6.06,1.54,8,4h0v-1c0-1.44,1.16-2.6,2.6-2.6s2.6,1.16,2.6,2.6l.3,27.2ZM181.59,273.37c6.4,0,8.7-6.3,8.7-11.7s-2.3-11.6-8.7-11.6-8.6,6.3-8.6,11.6,2.2,11.7,8.6,11.7Z" fill="#0a0a0a"/><path d="M204.69,234.87c1.77,0,3.2,1.43,3.2,3.2s-1.43,3.2-3.2,3.2-3.2-1.43-3.2-3.2h0c0-1.77,1.43-3.2,3.2-3.2ZM207.29,274.87c0,1.44-1.16,2.6-2.6,2.6s-2.6-1.16-2.6-2.6v-26.5c0-1.44,1.16-2.6,2.6-2.6s2.6,1.16,2.6,2.6v26.5Z" fill="#0a0a0a"/><path d="M224.28,245.57c4.3,0,10.5,2.3,10.5,5.6.01,1.16-.92,2.11-2.08,2.12-.11,0-.22,0-.32-.02-2.3,0-3.1-3.2-8.1-3.2-3,0-5.6,1.3-5.6,4,0,5.5,16.9,4.9,16.9,14.1.06,5.52-4.36,10.05-9.89,10.11-.54,0-1.08-.03-1.61-.11-6.7,0-11.9-3.3-11.9-6-.06-1.23.87-2.29,2.1-2.4,2.4,0,4.3,3.9,10,3.9,3.8,0,6.1-2.2,6.1-4.3,0-6.2-16.9-5.8-16.9-14.6.42-5.51,5.23-9.63,10.74-9.2.02,0,.04,0,.06,0Z" fill="#0a0a0a"/><path d="M242.28,239.07c0-1.44,1.16-2.6,2.6-2.6s2.6,1.16,2.6,2.6v6.8h2.5c1.7,0,2.6.9,2.6,2.3s-1.3,1.9-2.6,1.9h-2.1v25c0,1.44-1.16,2.6-2.6,2.6s-2.6-1.16-2.6-2.6h0v-25h-2.7c-1.7,0-2.6-.9-2.6-2.3s.9-2.3,2.6-2.3h2.2l.1-6.4Z" fill="#0a0a0a"/><path d="M259.38,263.77c-.61,4.88,2.84,9.33,7.72,9.94.52.07,1.05.09,1.58.06,6.9,0,8.7-4.3,10.7-4.3,1.15.1,2.01,1.13,1.9,2.28,0,0,0,.01,0,.02,0,2.6-6.5,6.5-12.7,6.5-8.01.06-14.54-6.39-14.6-14.4,0-.6.03-1.2.1-1.8-.67-8.2,5.43-15.39,13.64-16.06.19-.02.38-.03.56-.04,7.94.42,14.04,7.2,13.61,15.14,0,.09,0,.17-.02.26,0,1.8-.6,2.8-2.9,2.8l-19.6-.4ZM276.68,259.77c.61-4.88-2.84-9.33-7.72-9.94-.23-.03-.45-.05-.68-.06-6.4,0-8.8,4.9-8.9,10h17.3Z" fill="#0a0a0a"/><path d="M286.88,248.37c-.17-1.37.81-2.62,2.18-2.78.14-.02.28-.02.42-.02,1.43-.06,2.65,1.06,2.71,2.49,0,.1,0,.21,0,.31v2.7h0c1.27-2.93,3.95-5.01,7.1-5.5,1.49-.11,2.78,1.01,2.89,2.49,0,.07,0,.14,0,.21,0,1.5-1.1,2.4-3.3,2.8-4.27.76-7.23,4.68-6.8,9v15c.11,1.43-.96,2.68-2.39,2.79-.1,0-.21,0-.31,0-1.38.07-2.55-1-2.62-2.38,0-.14,0-.28.02-.42l.1-26.7Z" fill="#0a0a0a"/><path d="M332.98,245.57c8.11.4,14.35,7.3,13.95,15.41-.01.23-.03.46-.05.69,1.31,7.68-3.86,14.96-11.53,16.27-7.68,1.31-14.96-3.86-16.27-11.53-.27-1.57-.27-3.17,0-4.73-.78-8.08,5.13-15.27,13.21-16.05.23-.02.46-.04.69-.05ZM332.98,273.37c6.4,0,8.7-6.3,8.7-11.7s-2.3-11.6-8.7-11.6-8.7,6.3-8.7,11.6,2.3,11.7,8.7,11.7Z" fill="#0a0a0a"/><path d="M359.28,275.07c0,1.44-1.16,2.6-2.6,2.6s-2.6-1.16-2.6-2.6h0v-25h-2.1c-1.8,0-2.7-.9-2.7-2.3s.9-2.3,2.7-2.3h2.1v-7.4c-.23-3.53,2.44-6.57,5.97-6.81.31-.02.62-.02.93,0h1.6c1.4,0,3,.8,3,2.2s-.9,2.3-2.8,2.3h-1.3c-1.6,0-2.2.8-2.2,2.1v7.6h3.3c1.7,0,2.6.9,2.6,2.3s-.9,2.3-2.6,2.3h-3.3v25Z" fill="#0a0a0a"/><path d="M393.07,271.07h12.6c1.26-.17,2.42.72,2.58,1.98.02.14.02.28.02.42.12,1.26-.8,2.39-2.07,2.51-.18.02-.36.01-.53-.01h-15c-1.43.12-2.69-.94-2.81-2.37-.01-.18-.01-.35,0-.53v-36.6c-.18-1.37.79-2.62,2.16-2.8.21-.03.43-.03.64,0h15c1.5,0,2.6.7,2.6,2.4s-1.1,2.4-2.6,2.4h-12.6v13.9h11.5c1.5,0,2.6.7,2.6,2.4s-1.1,2.4-2.6,2.4h-11.5v13.9Z" fill="#0a0a0a"/><path d="M421.57,259.17l-8.2-10.7c-.53-.58-.84-1.32-.9-2.1-.06-1.27.93-2.34,2.2-2.4,0,0,0,0,0,0,.9-.05,1.75.42,2.2,1.2l7.7,10,7.7-10c.45-.78,1.3-1.24,2.2-1.2,1.27.05,2.25,1.13,2.2,2.4,0,0,0,0,0,0-.06.78-.37,1.52-.9,2.1l-8.2,10.7,9.4,12.2c.58.71.93,1.58,1,2.5.06,1.27-.93,2.34-2.2,2.4-.03,0-.07,0-.1,0-.94,0-1.83-.44-2.4-1.2l-8.7-12.1-8.7,12.1c-.52.75-1.38,1.2-2.3,1.2-1.33,0-2.4-1.07-2.4-2.4h0c.07-.93.46-1.82,1.1-2.5l9.3-12.2Z" fill="#0a0a0a"/><path d="M445.17,262.17c-.61,4.88,2.84,9.33,7.72,9.94.52.07,1.05.09,1.58.06,6.9,0,8.7-4.3,10.7-4.3,1.15.1,2.01,1.13,1.9,2.28,0,0,0,.01,0,.02,0,2.6-6.5,6.5-12.7,6.5-7.95.09-14.47-6.28-14.57-14.23,0-.79.05-1.59.17-2.37-.73-8.2,5.33-15.43,13.53-16.15.22-.02.45-.03.67-.04,7.94.42,14.04,7.2,13.61,15.14,0,.09,0,.17-.02.26,0,1.8-.6,2.8-2.9,2.8l-19.7.1ZM462.47,258.27c.61-4.88-2.84-9.33-7.72-9.94-.23-.03-.45-.05-.68-.06-6.4,0-8.8,4.9-8.9,10h17.3Z" fill="#0a0a0a"/><path d="M472.67,246.77c0-1.44,1.16-2.6,2.6-2.6s2.6,1.16,2.6,2.6v2.7h0c1.27-2.93,3.95-5.01,7.1-5.5,1.49-.11,2.78,1.01,2.89,2.49,0,.07,0,.14,0,.21,0,1.5-1.1,2.4-3.3,2.8-4.31.72-7.33,4.65-6.9,9v15c0,1.44-1.16,2.6-2.6,2.6s-2.6-1.16-2.6-2.6l.2-26.7Z" fill="#0a0a0a"/><path d="M504.27,243.97c5.4,0,8.5,1.8,8.5,4-.05,1.16-.95,2.1-2.1,2.2-2,0-2.8-1.7-6.4-1.7-6.5,0-9,6.3-9,11.7s2.5,11.6,9,11.6c3.7,0,4.6-1.8,6.3-1.8,1.1,0,2,.89,2.01,1.99,0,.07,0,.14,0,.21,0,2-2.9,4.1-8.3,4.1-8.01-.06-14.45-6.59-14.4-14.6,0-.53.04-1.07.1-1.6-.88-7.96,4.85-15.13,12.81-16.01.49-.05.99-.08,1.49-.09Z" fill="#0a0a0a"/><path d="M519.96,233.27c1.77,0,3.2,1.43,3.2,3.2s-1.43,3.2-3.2,3.2-3.2-1.43-3.2-3.2h0c0-1.77,1.43-3.2,3.2-3.2ZM522.56,273.27c0,1.44-1.16,2.6-2.6,2.6s-2.6-1.16-2.6-2.6v-26.5c0-1.44,1.16-2.6,2.6-2.6s2.6,1.16,2.6,2.6v26.5Z" fill="#0a0a0a"/><path d="M539.96,243.97c4.4,0,10.6,2.3,10.6,5.6.01,1.16-.92,2.11-2.08,2.12-.11,0-.22,0-.32-.02-2.3,0-3.2-3.2-8.2-3.2-2.9,0-5.5,1.3-5.5,4,0,5.5,16.9,4.9,16.9,14.1.06,5.52-4.36,10.05-9.89,10.11-.54,0-1.08-.03-1.61-.11-6.7,0-11.9-3.3-11.9-6-.06-1.23.87-2.29,2.1-2.4,2.3,0,4.2,3.9,10,3.9,3.9,0,6.2-2.1,6.2-4.3,0-6.2-16.9-5.8-16.9-14.6.43-5.45,5.15-9.54,10.6-9.2Z" fill="#0a0a0a"/><path d="M559.96,262.17c-.61,4.88,2.84,9.33,7.72,9.94.52.07,1.05.09,1.58.06,7,0,8.8-4.3,10.7-4.3,1.15.1,2.01,1.13,1.9,2.28,0,0,0,.01,0,.02,0,2.6-6.5,6.5-12.6,6.5-7.94.37-14.68-5.77-15.05-13.71-.05-.97,0-1.93.16-2.89-.78-8.14,5.19-15.36,13.32-16.14.29-.03.58-.05.88-.06,7.94.42,14.04,7.2,13.61,15.14,0,.09,0,.17-.02.26,0,1.8-.7,2.8-2.9,2.8l-19.3.1ZM577.26,258.27c.62-4.88-2.84-9.33-7.71-9.94-.19-.02-.39-.04-.59-.05-6.5,0-8.8,4.9-9,10h17.3Z" fill="#0a0a0a"/><path d="M607.16,273.47c0,1.44-1.16,2.6-2.6,2.6s-2.6-1.16-2.6-2.6v-37c-.18-1.37.79-2.62,2.16-2.8.21-.03.43-.03.64,0h10c7.17-.44,13.33,5,13.78,12.17.02.38.03.75.02,1.13-.11,7.27-6.03,13.1-13.3,13.1h-8.1v13.4ZM607.16,255.57h7.8c4.64.11,8.49-3.56,8.6-8.19,0-.13,0-.27,0-.4.35-4.51-3.03-8.46-7.54-8.81-.45-.03-.91-.03-1.36,0h-7.5v17.4Z" fill="#0a0a0a"/><path d="M632.76,246.77c-.29-1.46.67-2.88,2.13-3.17s2.88.67,3.17,2.13c.07.34.07.69,0,1.03v2.7h0c1.27-2.93,3.95-5.01,7.1-5.5,1.43-.17,2.72.85,2.88,2.28.02.14.02.28.02.42,0,1.5-1,2.4-3.2,2.8-4.31.72-7.33,4.65-6.9,9v15c.29,1.46-.67,2.88-2.13,3.17s-2.88-.67-3.17-2.13c-.07-.34-.07-.69,0-1.03l.1-26.7Z" fill="#0a0a0a"/><path d="M664.05,243.97c8.11.4,14.35,7.3,13.95,15.41-.01.23-.03.46-.05.69.93,7.73-4.59,14.75-12.32,15.68-7.73.93-14.75-4.59-15.68-12.32-.13-1.11-.13-2.24,0-3.35-.78-8.08,5.14-15.26,13.22-16.04.29-.03.58-.05.88-.06ZM664.05,271.77c6.4,0,8.7-6.3,8.7-11.6s-2.3-11.7-8.7-11.7-8.7,6.3-8.7,11.7,2.3,11.6,8.7,11.6Z" fill="#0a0a0a"/><path d="M689.95,273.47c0,1.44-1.15,2.6-2.59,2.61s-2.6-1.15-2.61-2.59v-24.62h-1.8c-1.7,0-2.6-.9-2.6-2.3s.9-2.2,2.6-2.2h2.2v-7.5c-.23-3.53,2.44-6.57,5.97-6.81.31-.02.62-.02.93,0h1.6c1.4,0,3,.8,3,2.3s-.9,2.2-2.9,2.2h-1.3c-1.6,0-2.1.8-2.1,2.1v7.7h3.3c1.7,0,2.6.8,2.6,2.2s-.9,2.3-2.6,2.3h-3.7v24.6Z" fill="#0a0a0a"/><path d="M702.15,262.17c-.56,4.94,3,9.39,7.94,9.95.45.05.91.07,1.36.05,7,0,8.8-4.3,10.7-4.3,1.16.1,2.01,1.13,1.9,2.28,0,0,0,.01,0,.02,0,2.6-6.4,6.5-12.6,6.5-7.95.15-14.52-6.18-14.67-14.13-.02-.83.04-1.65.17-2.47-.78-8.14,5.19-15.36,13.32-16.14.29-.03.58-.05.88-.06,7.94.42,14.04,7.2,13.62,15.14,0,.09,0,.17-.02.26,0,1.8-.7,2.8-2.9,2.8l-19.7.1ZM719.95,258.27c.56-4.94-2.99-9.4-7.93-9.96-.16-.02-.32-.03-.47-.04-6.5,0-8.8,4.9-9,10h17.4Z" fill="#0a0a0a"/><path d="M739.95,243.97c4.3,0,10,2.3,10,5.6.01,1.16-.92,2.11-2.08,2.12-.11,0-.22,0-.32-.02-2.2,0-3.1-3.2-8.1-3.2-3,0-5.5,1.3-5.5,4,0,5.5,16.8,4.9,16.8,14.1.06,5.52-4.36,10.05-9.89,10.11-.54,0-1.08-.03-1.61-.11-6.6,0-11.9-3.3-11.9-6-.06-1.27.93-2.34,2.2-2.4,0,0,0,0,0,0,2.3,0,4.2,3.9,10,3.9,3.8,0,6.1-2.1,6.1-4.3,0-6.2-16.8-5.8-16.8-14.6.41-5.51,5.2-9.64,10.71-9.24.13,0,.26.02.39.04Z" fill="#0a0a0a"/><path d="M766.15,243.97c4.3,0,10,2.3,10,5.6.01,1.16-.92,2.11-2.08,2.12-.11,0-.22,0-.32-.02-2.2,0-3.1-3.2-8.1-3.2-3,0-5.6,1.3-5.6,4,0,5.5,16.9,4.9,16.9,14.1.06,5.52-4.36,10.05-9.89,10.11-.54,0-1.08-.03-1.61-.11-6.7,0-11.9-3.3-11.9-6-.06-1.27.93-2.34,2.2-2.4,0,0,0,0,0,0,2.3,0,4.2,3.9,10,3.9,3.8,0,6.1-2.1,6.1-4.3,0-6.2-16.9-5.8-16.9-14.6.4-5.51,5.19-9.65,10.7-9.25.17.01.33.03.5.05Z" fill="#0a0a0a"/><path d="M785.05,233.27c1.77,0,3.2,1.43,3.2,3.2s-1.43,3.2-3.2,3.2-3.2-1.43-3.2-3.2h0c0-1.77,1.43-3.2,3.2-3.2ZM787.65,273.27c0,1.44-1.15,2.6-2.59,2.61s-2.6-1.15-2.61-2.59v-26.52c0-1.44,1.15-2.6,2.59-2.61s2.6,1.15,2.61,2.59v26.52Z" fill="#0a0a0a"/><path d="M807.14,243.97c8.11.4,14.35,7.3,13.95,15.41-.01.23-.03.46-.05.69,1.31,7.68-3.86,14.96-11.53,16.27-7.68,1.31-14.96-3.86-16.27-11.53-.27-1.57-.27-3.17,0-4.73-.78-8.08,5.13-15.27,13.21-16.05.23-.02.46-.04.69-.05ZM807.14,271.77c6.4,0,8.6-6.3,8.6-11.6s-2.2-11.7-8.6-11.7-8.7,6.3-8.7,11.7,2.2,11.6,8.7,11.6Z" fill="#0a0a0a"/><path d="M826.54,246.77c0-1.44,1.15-2.6,2.59-2.61s2.6,1.15,2.61,2.59v1.42c3.61-4.95,10.55-6.05,15.51-2.44,3.23,2.35,4.95,6.26,4.49,10.24v17.5c0,1.44-1.15,2.6-2.59,2.61s-2.6-1.15-2.61-2.59v-17.22c0-4.03-3.26-7.3-7.29-7.31-4.03,0-7.3,3.26-7.31,7.29v17.22c0,1.44-1.15,2.6-2.59,2.61s-2.6-1.15-2.61-2.59v-.02l-.2-26.7Z" fill="#0a0a0a"/><path d="M884.64,273.77c0,1.38-1.12,2.5-2.5,2.5-1.33,0-2.4-1.07-2.4-2.4,0-.03,0-.07,0-.1v-2.2h0c-1.85,2.96-5.11,4.74-8.6,4.7-8.11-.34-14.41-7.2-14.06-15.31.01-.3.03-.59.06-.89-.84-8.07,5.03-15.3,13.1-16.14.26-.03.53-.05.8-.06,3.36.01,6.52,1.56,8.6,4.2h0v-1.6c-.11-1.32.87-2.48,2.19-2.59.07,0,.14,0,.21,0,1.38,0,2.5,1.12,2.5,2.5,0,.03,0,.07,0,.1l.1,27.3ZM871.04,271.77c6.4,0,8.6-6.3,8.6-11.6s-2.2-11.7-8.6-11.7-8.7,6.3-8.7,11.7,2.2,11.6,8.7,11.6Z" fill="#0a0a0a"/><path d="M896.74,273.47c.17,1.37-.81,2.62-2.18,2.78-.14.02-.28.02-.42.02-1.43.06-2.65-1.06-2.71-2.49,0-.1,0-.21,0-.31v-40.6c-.11-1.43.96-2.68,2.39-2.79.1,0,.21,0,.31,0,1.38-.07,2.55,1,2.62,2.38,0,.14,0,.28-.02.42v40.6Z" fill="#0a0a0a"/><path d="M913.64,243.97c4.3,0,10,2.3,10,5.6.01,1.16-.92,2.11-2.08,2.12-.11,0-.22,0-.32-.02-2.2,0-3.1-3.2-8.1-3.2-3,0-5.5,1.3-5.5,4,0,5.5,16.8,4.9,16.8,14.1.06,5.52-4.36,10.05-9.89,10.11-.54,0-1.08-.03-1.61-.11-6.6,0-11.9-3.3-11.9-6-.06-1.27.93-2.34,2.2-2.4,0,0,0,0,0,0,2.3,0,4.2,3.9,10,3.9,3.8,0,6.1-2.1,6.1-4.3,0-6.2-16.8-5.8-16.8-14.6.41-5.51,5.2-9.64,10.71-9.24.13,0,.26.02.39.04Z" fill="#0a0a0a"/><path d="M337.78,21.69c-.91-11.01,7.28-20.67,18.28-21.58,1-.08,2.01-.09,3.01-.02h48.6c42.3,0,68.8,19.1,68.8,62.4,0,30-22.9,47.8-51.1,52.2l47,50c3.31,3.23,5.27,7.58,5.5,12.2,0,11.52-9.19,20.93-20.7,21.2-6.13.03-11.98-2.56-16.1-7.1l-61.1-73.99h0v60c.8,11.46-7.85,21.39-19.31,22.19s-21.39-7.85-22.19-19.31c-.07-.96-.07-1.92,0-2.88l-.7-155.29ZM379.27,87.08h28.4c12.92,1.23,24.39-8.24,25.62-21.16.11-1.14.13-2.29.08-3.44.68-12.79-9.13-23.72-21.93-24.4-1.26-.07-2.52-.03-3.77.11h-28.4v48.9Z" fill="#0a0a0a"/><path d="M513.56,24.08c0-13.8,6.9-24,21.5-24h92.29c10.12-.89,19.05,6.59,19.94,16.71.07.79.09,1.59.05,2.39.25,10.27-7.87,18.8-18.14,19.05-.62.02-1.24,0-1.86-.05h-72.4v40h69.1c10.3-.72,19.24,7.05,19.96,17.35.04.55.05,1.1.04,1.65.07,10.49-8.38,19.05-18.87,19.12-.38,0-.75,0-1.13-.03h-69.1v42h74.99c10.06-.95,18.99,6.44,19.93,16.5.08.83.1,1.66.06,2.5.25,10.32-7.92,18.89-18.25,19.14-.58.01-1.17,0-1.75-.04h-94.99c-11.02.73-20.54-7.62-21.27-18.64-.05-.68-.05-1.37-.03-2.06l-.1-151.59Z" fill="#0a0a0a"/><path d="M684.55,21.69c-.92-11.01,7.26-20.67,18.27-21.59,1.07-.09,2.16-.09,3.23,0h48.9c40.6,0,70.7,26.5,70.7,66s-31.2,65.5-69,65.5h-30.7v45.3c0,11.43-9.26,20.7-20.69,20.71-11.43,0-20.7-9.26-20.71-20.69V21.69ZM725.95,95.08h28.2c15.23.47,27.97-11.5,28.44-26.73.03-.86.01-1.71-.04-2.57.89-15.22-10.72-28.27-25.94-29.16-.82-.05-1.64-.06-2.46-.03h-28.2v58.5Z" fill="#0a0a0a"/><path d="M908.84,113.08c-6.1,0-18.4-9.4-28.9-9.4-5.9,0-11,2.7-11,8.9,0,15.1,56,12.8,56,50,0,21.5-18.1,37.9-45.9,37.9-18.2,0-45.1-10-45.1-24.9.42-7.56,6.35-13.66,13.9-14.3,12.6,0,18.2,10.9,33.4,10.9,10,0,12.8-3.1,12.8-9.1,0-14.9-56.1-12.6-56.1-50,0-22.4,18.2-37.7,43.8-37.7,15.9,0,40,7.4,40,23.3.24,7.47-5.44,13.82-12.9,14.4Z" fill="#0a0a0a"/><path d="M157.19,30.58c0,7.23-5.86,13.1-13.1,13.1s-13.1-5.86-13.1-13.1,5.86-13.1,13.1-13.1,13.1,5.86,13.1,13.1h0Z" fill="#0a0a0a"/><path d="M148.39,42.18c8.1,5.3,15.1-5.4,18.3-10s20-26.5,21.6-28.6,4.2-4.9,7.2-2.9,2.1,4.2.8,6.4-36.3,53.7-36.3,73.59c0,12.5,23.7,104.79,24.7,111.69,1,6.9-2.9,7.7-4.7,7.7-2.74.14-5.15-1.8-5.6-4.5-1-3.9-25.1-86.99-28.6-86.99h-3.1c-3.6,0-27.7,83.09-28.7,86.99-.45,2.7-2.86,4.64-5.6,4.5-2.1,0-5.9-.7-4.9-7.7,1-7,24.7-99.19,24.7-111.69,0-20-34.8-71-36.3-73.49s-1.9-4.5.4-6.4,5.6.9,7.3,2.9c1.7,2,18,23.7,21.5,28.6s10,15.2,18.3,10l9-.1Z" fill="#0a0a0a"/><path d="M56.9,55.88c0,6.19-5.01,11.2-11.2,11.2-6.19,0-11.2-5.01-11.2-11.2s5.01-11.2,11.2-11.2h0c6.19,0,11.2,5.01,11.2,11.2Z" fill="#0a0a0a"/><path d="M49.4,65.78c6.8,4.5,12.8-4.7,15.5-8.5s16.9-22.5,18.4-24.3,3.6-4.2,6.7-2.9,1.7,3.6.6,5.5-31.4,46-31.4,62.9c0,10.7,20,89.09,21,95.09,1,6-2.4,6.5-4.2,6.5-2.34.12-4.39-1.57-4.7-3.9-1.3-3.2-21.3-73.99-24.4-73.99h-2.7c-3,0-23.5,70.8-24.4,73.99-.31,2.33-2.36,4.02-4.7,3.9-1.8,0-5.1-.6-4.2-6.5.9-5.9,21-84.39,21-95.09C31.9,81.58,1.9,38.48,1,35.98s-1.8-3.9.6-5.9c2.4-2,4.8.8,6.2,2.5s15.4,20,18.4,24.3,8.7,13,15.5,8.5l7.7.4Z" fill="#0a0a0a"/><path d="M253.58,55.88c0,6.19-5.01,11.2-11.2,11.2-6.19,0-11.2-5.01-11.2-11.2s5.01-11.2,11.2-11.2,11.2,5.01,11.2,11.2h0Z" fill="#0a0a0a"/><path d="M246.08,65.78c6.9,4.5,12.8-4.7,15.5-8.5,2.7-3.8,17-22.5,18.4-24.3s3.6-4.2,6.2-2.5,1.7,3.6.6,5.5-30.9,45.6-30.9,62.5c0,10.7,20,89.09,21,95.09,1,6-2.4,6.5-4.2,6.5-2.34.12-4.39-1.57-4.7-3.9-.9-3.2-21.4-73.99-24.4-73.99h-2.6c-3.1,0-23.6,70.8-24.5,73.99-.26,2.35-2.34,4.08-4.7,3.9-1.8,0-5-.6-4.2-6.5.8-5.9,21-84.39,21-95.09,0-16.9-30-60-30.9-62.5s-1.7-3.9.7-5.5c2.4-1.6,4.7.8,6.1,2.5s15.4,20,18.4,24.3,8.7,13,15.5,8.5h7.7Z" fill="#0a0a0a"/></g></svg>