<?xml version="1.0" encoding="UTF-8"?><svg id="b" xmlns="http://www.w3.org/2000/svg" width="300" height="94.09" viewBox="0 0 300 94.09"><g id="c"><path d="M3.41,77.87H.84c-.49,0-.84-.23-.84-.78s.36-.78.84-.78h6.81c.43,0,.78.35.78.78s-.35.78-.78.78h-2.56v11.35c.05.44-.26.85-.71.9-.05,0-.09,0-.14,0-.45.02-.83-.32-.85-.77,0-.05,0-.09,0-.14v-11.35Z" fill="#0b0d10"/><path d="M16.22,83.64c0-1.31-1.06-2.37-2.37-2.37-1.31,0-2.37,1.06-2.37,2.37h0v5.58c0,.47-.38.84-.84.84-.47,0-.84-.38-.84-.84h0v-13.17c0-.47.38-.84.84-.84.47,0,.84.38.84.84h0v5.06c1.17-1.61,3.42-1.96,5.03-.79,1.05.76,1.6,2.03,1.46,3.32v5.58c.09.47-.22.93-.69,1.03-.47.09-.93-.22-1.03-.69-.02-.11-.02-.22,0-.34l-.03-5.58Z" fill="#0b0d10"/><path d="M21.08,85.55c-.2,1.58.92,3.03,2.5,3.22.17.02.34.03.51.02,2.27,0,2.82-1.39,3.47-1.39.37.03.65.37.62.74,0,0,0,0,0,0,0,.84-2.11,2.11-4.12,2.11-2.6-.03-4.68-2.15-4.65-4.75,0-.21.02-.42.05-.63-.22-2.66,1.76-4.99,4.42-5.21.06,0,.12,0,.18-.01,2.56.12,4.54,2.29,4.42,4.85,0,.05,0,.1,0,.15,0,.58-.19.91-.94.91h-6.45ZM26.69,84.35c.2-1.58-.92-3.03-2.5-3.22-.07,0-.15-.02-.22-.02-2.08,0-2.82,1.59-2.89,3.24h5.61Z" fill="#0b0d10"/><path d="M36.52,89.22c0,.47-.38.84-.84.84s-.84-.38-.84-.84h0v-12c-.06-.44.26-.85.7-.91.07,0,.14,0,.21,0h3.24c2.16-.15,4.03,1.49,4.18,3.65,0,.02,0,.03,0,.05.2,1.94-1.21,3.68-3.15,3.88-.19.02-.38.02-.58.01h-.84l4.38,4.8c.21.2.33.49.32.78-.03.39-.38.68-.77.65,0,0,0,0,0,0-.3,0-.57-.15-.75-.39l-5.25-5.74v5.22ZM36.52,82.73h2.4c1.78,0,2.56-.75,2.56-2.53-.03-1.33-1.13-2.37-2.46-2.34-.03,0-.07,0-.1,0h-2.27l-.13,4.86Z" fill="#0b0d10"/><path d="M45.89,85.55c-.18,1.6.97,3.05,2.57,3.23.16.02.32.02.48.01,2.24,0,2.82-1.39,3.44-1.39s.62.26.62.75-2.08,2.11-4.09,2.11c-2.6.02-4.72-2.07-4.74-4.67,0-.2,0-.39.03-.58-.23-2.64,1.72-4.97,4.36-5.21.08,0,.17-.01.25-.02,2.58.14,4.55,2.34,4.42,4.91,0,.03,0,.06,0,.08,0,.58-.23.91-.94.91l-6.39-.13ZM51.54,84.26c.2-1.58-.92-3.03-2.5-3.22-.07,0-.15-.02-.22-.02-2.11,0-2.85,1.59-2.92,3.24h5.64Z" fill="#0b0d10"/><path d="M63.24,89.28c.2,2.45-1.62,4.59-4.07,4.79-.19.02-.38.02-.57,0-1.75,0-3.92-1.01-3.92-1.88-.05-.37.2-.72.58-.77.05,0,.09,0,.14,0,.78,0,1.52,1.2,3.24,1.2,1.54.04,2.82-1.18,2.86-2.72,0-.18,0-.35-.04-.52v-.88h0c-.53.92-1.53,1.48-2.59,1.46-2.63-.13-4.66-2.37-4.53-5,0-.09.01-.17.02-.26-.25-2.62,1.66-4.95,4.29-5.21.07,0,.15-.01.22-.02,1.02.02,1.97.5,2.59,1.3h0v-.32c0-.47.38-.84.84-.84s.84.38.84.84l.1,8.82ZM58.9,88.67c2.08,0,2.82-2.04,2.82-3.79s-.75-3.76-2.82-3.76-2.79,2.04-2.79,3.76.71,3.79,2.79,3.79Z" fill="#0b0d10"/><path d="M66.39,76.18c.57,0,1.04.46,1.04,1.04s-.46,1.04-1.04,1.04-1.04-.46-1.04-1.04h0c0-.57.46-1.04,1.04-1.04ZM67.23,89.15c0,.47-.38.84-.84.84s-.84-.38-.84-.84v-8.59c0-.47.38-.84.84-.84s.84.38.84.84v8.59Z" fill="#0b0d10"/><path d="M72.75,79.65c1.39,0,3.41.75,3.41,1.82,0,.38-.3.68-.67.69-.03,0-.07,0-.1,0-.75,0-1.01-1.04-2.63-1.04-.97,0-1.82.42-1.82,1.3,0,1.78,5.48,1.59,5.48,4.57.02,1.79-1.42,3.26-3.21,3.28-.18,0-.35-.01-.52-.04-2.17,0-3.86-1.07-3.86-1.95-.02-.4.28-.74.68-.78.78,0,1.39,1.26,3.24,1.26,1.23,0,1.98-.71,1.98-1.39,0-2.01-5.48-1.88-5.48-4.74.14-1.79,1.7-3.12,3.48-2.99,0,0,.01,0,.02,0Z" fill="#0b0d10"/><path d="M78.58,77.54c0-.47.38-.84.84-.84s.84.38.84.84v2.21h.81c.55,0,.84.29.84.75s-.42.62-.84.62h-.68v8.11c0,.47-.38.84-.84.84s-.84-.38-.84-.84h0v-8.11h-.88c-.55,0-.84-.29-.84-.75s.29-.75.84-.75h.71l.03-2.08Z" fill="#0b0d10"/><path d="M84.13,85.55c-.2,1.58.92,3.03,2.5,3.22.17.02.34.03.51.02,2.24,0,2.82-1.39,3.47-1.39.37.03.65.37.62.74,0,0,0,0,0,0,0,.84-2.11,2.11-4.12,2.11-2.6.02-4.72-2.07-4.74-4.67,0-.2,0-.39.03-.58-.22-2.66,1.76-4.99,4.42-5.21.06,0,.12,0,.18-.01,2.58.14,4.55,2.34,4.42,4.91,0,.03,0,.06,0,.08,0,.58-.19.91-.94.91l-6.36-.13ZM89.74,84.26c.2-1.58-.92-3.03-2.5-3.22-.07,0-.15-.02-.22-.02-2.08,0-2.85,1.59-2.89,3.24h5.61Z" fill="#0b0d10"/><path d="M93.05,80.56c-.05-.44.26-.85.71-.9.05,0,.09,0,.14,0,.47-.02.86.34.88.81,0,.03,0,.07,0,.1v.88h0c.41-.95,1.28-1.62,2.3-1.78.48-.04.9.33.94.81,0,.02,0,.04,0,.07,0,.49-.36.78-1.07.91-1.38.25-2.35,1.52-2.21,2.92v4.86c.04.46-.31.87-.78.91-.03,0-.07,0-.1,0-.45.02-.83-.32-.85-.77,0-.05,0-.09,0-.14l.03-8.66Z" fill="#0b0d10"/><path d="M108,79.65c2.63.13,4.66,2.37,4.52,5,0,.07,0,.15-.02.22.42,2.49-1.25,4.85-3.74,5.28-2.49.42-4.85-1.25-5.28-3.74-.09-.51-.09-1.03,0-1.53-.25-2.62,1.66-4.95,4.29-5.21.07,0,.15-.01.22-.02ZM108,88.67c2.08,0,2.82-2.04,2.82-3.79s-.75-3.76-2.82-3.76-2.82,2.04-2.82,3.76.75,3.79,2.82,3.79Z" fill="#0b0d10"/><path d="M116.53,89.22c0,.47-.38.84-.84.84s-.84-.38-.84-.84h0v-8.11h-.68c-.58,0-.88-.29-.88-.75s.29-.75.88-.75h.68v-2.4c-.08-1.14.79-2.13,1.93-2.21.1,0,.2,0,.3,0h.52c.45,0,.97.26.97.71s-.29.75-.91.75h-.42c-.52,0-.71.26-.71.68v2.46h1.07c.55,0,.84.29.84.75s-.29.75-.84.75h-1.07v8.11Z" fill="#0b0d10"/><path d="M127.49,87.92h4.09c.41-.05.78.23.84.64,0,.05,0,.09,0,.14.04.41-.26.77-.67.81-.06,0-.12,0-.17,0h-4.86c-.46.04-.87-.31-.91-.77,0-.06,0-.11,0-.17v-11.87c-.06-.44.26-.85.7-.91.07,0,.14,0,.21,0h4.86c.49,0,.84.23.84.78s-.36.78-.84.78h-4.09v4.51h3.73c.49,0,.84.23.84.78s-.36.78-.84.78h-3.73v4.51Z" fill="#0b0d10"/><path d="M136.74,84.06l-2.66-3.47c-.17-.19-.27-.43-.29-.68-.02-.41.3-.76.71-.78,0,0,0,0,0,0,.29-.01.57.14.71.39l2.5,3.24,2.5-3.24c.15-.25.42-.4.71-.39.41.02.73.37.71.78,0,0,0,0,0,0-.02.25-.12.49-.29.68l-2.66,3.47,3.05,3.96c.19.23.3.51.32.81.02.41-.3.76-.71.78-.01,0-.02,0-.03,0-.31,0-.59-.14-.78-.39l-2.82-3.92-2.82,3.92c-.17.24-.45.39-.75.39-.43,0-.78-.35-.78-.78h0c.02-.3.15-.59.36-.81l3.02-3.96Z" fill="#0b0d10"/><path d="M144.39,85.03c-.2,1.58.92,3.03,2.5,3.22.17.02.34.03.51.02,2.24,0,2.82-1.39,3.47-1.39.37.03.65.37.62.74,0,0,0,0,0,0,0,.84-2.11,2.11-4.12,2.11-2.58.03-4.69-2.04-4.72-4.62,0-.26.02-.51.05-.77-.24-2.66,1.73-5,4.39-5.24.07,0,.15-.01.22-.01,2.58.14,4.55,2.34,4.42,4.91,0,.03,0,.06,0,.08,0,.58-.19.91-.94.91l-6.39.03ZM150,83.77c.2-1.58-.92-3.03-2.5-3.22-.07,0-.15-.02-.22-.02-2.08,0-2.85,1.59-2.89,3.24h5.61Z" fill="#0b0d10"/><path d="M153.31,80.04c0-.47.38-.84.84-.84s.84.38.84.84v.88h0c.41-.95,1.28-1.62,2.3-1.78.48-.04.9.33.94.81,0,.02,0,.04,0,.07,0,.49-.36.78-1.07.91-1.4.23-2.38,1.51-2.24,2.92v4.86c0,.47-.38.84-.84.84s-.84-.38-.84-.84l.06-8.66Z" fill="#0b0d10"/><path d="M163.56,79.13c1.75,0,2.76.58,2.76,1.3-.01.38-.31.68-.68.71-.65,0-.91-.55-2.08-.55-2.11,0-2.92,2.04-2.92,3.79s.81,3.76,2.92,3.76c1.2,0,1.49-.58,2.04-.58.36,0,.65.29.65.65,0,.02,0,.05,0,.07,0,.65-.94,1.33-2.69,1.33-2.6-.02-4.69-2.14-4.67-4.74,0-.17.01-.35.03-.52-.29-2.58,1.57-4.91,4.15-5.19.16-.02.32-.03.48-.03Z" fill="#0b0d10"/><path d="M168.65,75.66c.57,0,1.04.46,1.04,1.04s-.46,1.04-1.04,1.04-1.04-.46-1.04-1.04h0c0-.57.46-1.04,1.04-1.04ZM169.49,88.63c0,.47-.38.84-.84.84s-.84-.38-.84-.84v-8.59c0-.47.38-.84.84-.84s.84.38.84.84v8.59Z" fill="#0b0d10"/><path d="M175.14,79.13c1.43,0,3.44.75,3.44,1.82,0,.38-.3.68-.67.69-.03,0-.07,0-.1,0-.75,0-1.04-1.04-2.66-1.04-.94,0-1.78.42-1.78,1.3,0,1.78,5.48,1.59,5.48,4.57.02,1.79-1.42,3.26-3.21,3.28-.18,0-.35-.01-.52-.04-2.17,0-3.86-1.07-3.86-1.95-.02-.4.28-.74.68-.78.75,0,1.36,1.26,3.24,1.26,1.26,0,2.01-.68,2.01-1.39,0-2.01-5.48-1.88-5.48-4.74.14-1.77,1.67-3.1,3.44-2.98Z" fill="#0b0d10"/><path d="M181.62,85.03c-.2,1.58.92,3.03,2.5,3.22.17.02.34.03.51.02,2.27,0,2.85-1.39,3.47-1.39.37.03.65.37.62.74,0,0,0,0,0,0,0,.84-2.11,2.11-4.09,2.11-2.58.12-4.76-1.87-4.88-4.45-.01-.31,0-.63.05-.94-.25-2.64,1.68-4.98,4.32-5.24.09,0,.19-.02.28-.02,2.58.14,4.55,2.34,4.42,4.91,0,.03,0,.06,0,.08,0,.58-.23.91-.94.91l-6.26.03ZM187.23,83.77c.2-1.58-.92-3.03-2.5-3.23-.06,0-.13-.01-.19-.02-2.11,0-2.85,1.59-2.92,3.24h5.61Z" fill="#0b0d10"/><path d="M196.93,88.7c0,.47-.38.84-.84.84s-.84-.38-.84-.84v-12c-.06-.44.26-.85.7-.91.07,0,.14,0,.21,0h3.24c2.32-.14,4.32,1.62,4.47,3.95,0,.12,0,.24,0,.37-.04,2.36-1.96,4.25-4.31,4.25h-2.63v4.35ZM196.93,82.89h2.53c1.5.04,2.75-1.15,2.79-2.66,0-.04,0-.09,0-.13.11-1.46-.98-2.74-2.45-2.86-.15-.01-.29-.01-.44,0h-2.43v5.64Z" fill="#0b0d10"/><path d="M205.23,80.04c-.09-.47.22-.93.69-1.03s.93.22,1.03.69c.02.11.02.22,0,.34v.88h0c.41-.95,1.28-1.62,2.3-1.78.46-.05.88.28.94.74,0,.05,0,.09,0,.14,0,.49-.32.78-1.04.91-1.4.23-2.38,1.51-2.24,2.92v4.86c.09.47-.22.93-.69,1.03s-.93-.22-1.03-.69c-.02-.11-.02-.22,0-.34l.03-8.66Z" fill="#0b0d10"/><path d="M215.38,79.13c2.63.13,4.66,2.37,4.52,5,0,.07,0,.15-.02.22.3,2.51-1.49,4.78-4,5.08s-4.78-1.49-5.08-4c-.04-.36-.04-.73,0-1.09-.25-2.62,1.67-4.95,4.29-5.2.09,0,.19-.02.28-.02ZM215.38,88.15c2.08,0,2.82-2.04,2.82-3.76s-.75-3.79-2.82-3.79-2.82,2.04-2.82,3.79.75,3.76,2.82,3.76Z" fill="#0b0d10"/><path d="M223.78,88.7c0,.47-.37.84-.84.85s-.84-.37-.85-.84h0v-7.98h-.58c-.55,0-.84-.29-.84-.75s.29-.71.84-.71h.71v-2.43c-.08-1.14.79-2.13,1.93-2.21.1,0,.2,0,.3,0h.52c.45,0,.97.26.97.75s-.29.71-.94.71h-.42c-.52,0-.68.26-.68.68v2.5h1.07c.55,0,.84.26.84.71s-.29.75-.84.75h-1.2v7.98Z" fill="#0b0d10"/><path d="M227.74,85.03c-.18,1.6.97,3.05,2.57,3.23.15.02.29.02.44.02,2.27,0,2.85-1.39,3.47-1.39.37.03.65.37.62.74,0,0,0,0,0,0,0,.84-2.08,2.11-4.09,2.11-2.58.05-4.71-2-4.76-4.58,0-.27.01-.54.05-.8-.25-2.64,1.68-4.98,4.32-5.24.09,0,.19-.02.28-.02,2.58.14,4.55,2.34,4.42,4.91,0,.03,0,.06,0,.08,0,.58-.23.91-.94.91l-6.39.03ZM233.51,83.77c.18-1.6-.97-3.05-2.57-3.23-.05,0-.1-.01-.15-.01-2.11,0-2.85,1.59-2.92,3.24h5.64Z" fill="#0b0d10"/><path d="M240,79.13c1.39,0,3.24.75,3.24,1.82,0,.38-.3.68-.67.69-.03,0-.07,0-.1,0-.71,0-1.01-1.04-2.63-1.04-.97,0-1.78.42-1.78,1.3,0,1.78,5.45,1.59,5.45,4.57.02,1.79-1.42,3.26-3.21,3.28-.18,0-.35-.01-.52-.04-2.14,0-3.86-1.07-3.86-1.95-.02-.41.3-.76.71-.78,0,0,0,0,0,0,.75,0,1.36,1.26,3.24,1.26,1.23,0,1.98-.68,1.98-1.39,0-2.01-5.45-1.88-5.45-4.74.13-1.79,1.69-3.13,3.47-3,.04,0,.08,0,.13.01Z" fill="#0b0d10"/><path d="M248.5,79.13c1.39,0,3.24.75,3.24,1.82,0,.38-.3.68-.67.69-.03,0-.07,0-.1,0-.71,0-1.01-1.04-2.63-1.04-.97,0-1.82.42-1.82,1.3,0,1.78,5.48,1.59,5.48,4.57.02,1.79-1.42,3.26-3.21,3.28-.18,0-.35-.01-.52-.04-2.17,0-3.86-1.07-3.86-1.95-.02-.41.3-.76.71-.78,0,0,0,0,0,0,.75,0,1.36,1.26,3.24,1.26,1.23,0,1.98-.68,1.98-1.39,0-2.01-5.48-1.88-5.48-4.74.13-1.79,1.68-3.13,3.47-3,.05,0,.11,0,.16.02Z" fill="#0b0d10"/><path d="M254.63,75.66c.57,0,1.04.46,1.04,1.04s-.46,1.04-1.04,1.04-1.04-.46-1.04-1.04h0c0-.57.46-1.04,1.04-1.04ZM255.47,88.63c0,.47-.37.84-.84.85s-.84-.37-.85-.84h0v-8.6c0-.47.37-.84.84-.85s.84.37.85.84h0v8.6Z" fill="#0b0d10"/><path d="M261.79,79.13c2.63.13,4.66,2.37,4.52,5,0,.07,0,.15-.02.22.42,2.49-1.25,4.85-3.74,5.28s-4.85-1.25-5.28-3.74c-.09-.51-.09-1.03,0-1.54-.25-2.62,1.66-4.95,4.29-5.21.07,0,.15-.01.22-.02ZM261.79,88.15c2.08,0,2.79-2.04,2.79-3.76s-.71-3.79-2.79-3.79-2.82,2.04-2.82,3.79.71,3.76,2.82,3.76Z" fill="#0b0d10"/><path d="M268.09,80.04c0-.47.37-.84.84-.85s.84.37.85.84h0v.46c1.17-1.61,3.42-1.96,5.03-.79,1.05.76,1.6,2.03,1.46,3.32v5.68c0,.47-.37.84-.84.85s-.84-.37-.85-.84h0v-5.58c0-1.31-1.06-2.37-2.36-2.37s-2.37,1.06-2.37,2.36h0v5.58c0,.47-.37.84-.84.85s-.84-.37-.85-.84h0s-.06-8.67-.06-8.67Z" fill="#0b0d10"/><path d="M286.93,88.8c0,.45-.36.81-.81.81-.43,0-.78-.35-.78-.78,0-.01,0-.02,0-.03v-.71h0c-.6.96-1.66,1.54-2.79,1.52-2.63-.11-4.67-2.33-4.56-4.96,0-.1.01-.19.02-.29-.27-2.62,1.63-4.96,4.25-5.23.09,0,.17-.02.26-.02,1.09,0,2.12.51,2.79,1.36h0v-.52c-.04-.43.28-.8.71-.84.02,0,.05,0,.07,0,.45,0,.81.36.81.81,0,.01,0,.02,0,.03l.03,8.85ZM282.52,88.15c2.08,0,2.79-2.04,2.79-3.76s-.71-3.79-2.79-3.79-2.82,2.04-2.82,3.79.71,3.76,2.82,3.76Z" fill="#0b0d10"/><path d="M290.85,88.7c.05.44-.26.85-.71.9-.05,0-.09,0-.14,0-.47.02-.86-.34-.88-.81,0-.03,0-.07,0-.1v-13.17c-.04-.46.31-.87.78-.91.03,0,.07,0,.1,0,.45-.02.83.32.85.77,0,.05,0,.09,0,.14v13.17Z" fill="#0b0d10"/><path d="M296.34,79.13c1.39,0,3.24.75,3.24,1.82,0,.38-.3.68-.67.69-.03,0-.07,0-.1,0-.71,0-1.01-1.04-2.63-1.04-.97,0-1.78.42-1.78,1.3,0,1.78,5.45,1.59,5.45,4.57.02,1.79-1.42,3.26-3.21,3.28-.18,0-.35-.01-.52-.04-2.14,0-3.86-1.07-3.86-1.95-.02-.41.3-.76.71-.78,0,0,0,0,0,0,.75,0,1.36,1.26,3.24,1.26,1.23,0,1.98-.68,1.98-1.39,0-2.01-5.45-1.88-5.45-4.74.13-1.79,1.69-3.13,3.47-3,.04,0,.08,0,.13.01Z" fill="#0b0d10"/><path d="M109.56,7.03c-.29-3.57,2.36-6.7,5.93-7,.33-.03.65-.03.98,0h15.76c13.72,0,22.31,6.19,22.31,20.24,0,9.73-7.43,15.5-16.57,16.93l15.24,16.22c1.07,1.05,1.71,2.46,1.78,3.96,0,3.73-2.98,6.79-6.71,6.88-1.99,0-3.89-.83-5.22-2.3l-19.82-24h0v19.46c.26,3.72-2.55,6.94-6.26,7.2s-6.94-2.55-7.2-6.26c-.02-.31-.02-.62,0-.93l-.23-50.37ZM123.02,28.24h9.21c4.19.4,7.91-2.67,8.31-6.86.04-.37.04-.74.02-1.11.22-4.15-2.96-7.69-7.11-7.92-.41-.02-.82-.01-1.22.03h-9.21v15.86Z" fill="#0b0d10"/><path d="M166.57,7.81c0-4.48,2.24-7.78,6.97-7.78h29.94c3.28-.29,6.18,2.14,6.47,5.42.02.26.03.52.02.77.08,3.33-2.55,6.1-5.88,6.18-.2,0-.4,0-.6-.02h-23.48v12.97h22.41c3.34-.23,6.24,2.29,6.47,5.63.01.18.02.36.01.53.02,3.4-2.72,6.18-6.12,6.2-.12,0-.24,0-.37,0h-22.41v13.62h24.32c3.26-.31,6.16,2.09,6.47,5.35.03.27.03.54.02.81.08,3.35-2.57,6.13-5.92,6.21-.19,0-.38,0-.57-.01h-30.81c-3.57.24-6.66-2.47-6.9-6.05-.01-.22-.02-.44,0-.67l-.03-49.17Z" fill="#0b0d10"/><path d="M222.03,7.03c-.3-3.57,2.36-6.71,5.93-7,.35-.03.7-.03,1.05,0h15.86c13.17,0,22.93,8.59,22.93,21.41s-10.12,21.24-22.38,21.24h-9.96v14.69c0,3.71-3,6.71-6.71,6.72-3.71,0-6.71-3-6.72-6.71h0V7.03ZM235.46,30.84h9.15c4.94.15,9.07-3.73,9.22-8.67,0-.28,0-.56-.01-.83.29-4.94-3.48-9.17-8.41-9.46-.27-.02-.53-.02-.8-.01h-9.15v18.97Z" fill="#0b0d10"/><path d="M294.78,36.68c-1.98,0-5.97-3.05-9.37-3.05-1.91,0-3.57.88-3.57,2.89,0,4.9,18.16,4.15,18.16,16.22,0,6.97-5.87,12.29-14.89,12.29-5.9,0-14.63-3.24-14.63-8.08.14-2.45,2.06-4.43,4.51-4.64,4.09,0,5.9,3.54,10.83,3.54,3.24,0,4.15-1.01,4.15-2.95,0-4.83-18.19-4.09-18.19-16.22,0-7.26,5.9-12.23,14.21-12.23,5.16,0,12.97,2.4,12.97,7.56.08,2.42-1.77,4.48-4.18,4.67Z" fill="#0b0d10"/><path d="M50.98,9.92c0,2.35-1.9,4.25-4.25,4.25s-4.25-1.9-4.25-4.25,1.9-4.25,4.25-4.25,4.25,1.9,4.25,4.25h0Z" fill="#0b0d10"/><path d="M48.13,13.68c2.63,1.72,4.9-1.75,5.94-3.24s6.49-8.59,7.01-9.28,1.36-1.59,2.34-.94.68,1.36.26,2.08-11.77,17.42-11.77,23.87c0,4.05,7.69,33.99,8.01,36.23s-.94,2.5-1.52,2.5c-.89.05-1.67-.58-1.82-1.46-.32-1.26-8.14-28.22-9.28-28.22h-1.01c-1.17,0-8.98,26.95-9.31,28.22-.15.88-.93,1.5-1.82,1.46-.68,0-1.91-.23-1.59-2.5s8.01-32.17,8.01-36.23c0-6.49-11.29-23.03-11.77-23.84s-.62-1.46.13-2.08,1.82.29,2.37.94c.55.65,5.84,7.69,6.97,9.28s3.24,4.93,5.94,3.24l2.92-.03Z" fill="#0b0d10"/><path d="M18.45,18.13c0,2.01-1.63,3.63-3.63,3.63-2.01,0-3.63-1.63-3.63-3.63s1.63-3.63,3.63-3.63h0c2.01,0,3.63,1.63,3.63,3.63Z" fill="#0b0d10"/><path d="M16.02,21.34c2.21,1.46,4.15-1.52,5.03-2.76s5.48-7.3,5.97-7.88,1.17-1.36,2.17-.94.55,1.17.19,1.78-10.18,14.92-10.18,20.4c0,3.47,6.49,28.9,6.81,30.84s-.78,2.11-1.36,2.11c-.76.04-1.42-.51-1.52-1.26-.42-1.04-6.91-24-7.91-24h-.88c-.97,0-7.62,22.96-7.91,24-.1.75-.76,1.31-1.52,1.26-.58,0-1.65-.19-1.36-2.11s6.81-27.37,6.81-30.84C10.35,26.46.62,12.48.32,11.67s-.58-1.26.19-1.91c.78-.65,1.56.26,2.01.81s4.99,6.49,5.97,7.88,2.82,4.22,5.03,2.76l2.5.13Z" fill="#0b0d10"/><path d="M82.25,18.13c0,2.01-1.63,3.63-3.63,3.63-2.01,0-3.63-1.63-3.63-3.63s1.63-3.63,3.63-3.63,3.63,1.63,3.63,3.63h0Z" fill="#0b0d10"/><path d="M79.82,21.34c2.24,1.46,4.15-1.52,5.03-2.76s5.51-7.3,5.97-7.88,1.17-1.36,2.01-.81.55,1.17.19,1.78-10.02,14.79-10.02,20.27c0,3.47,6.49,28.9,6.81,30.84s-.78,2.11-1.36,2.11c-.76.04-1.42-.51-1.52-1.26-.29-1.04-6.94-24-7.91-24h-.84c-1.01,0-7.65,22.96-7.95,24-.09.76-.76,1.32-1.52,1.26-.58,0-1.62-.19-1.36-2.11s6.81-27.37,6.81-30.84c0-5.48-9.73-19.46-10.02-20.27s-.55-1.26.23-1.78,1.52.26,1.98.81,4.99,6.49,5.97,7.88,2.82,4.22,5.03,2.76h2.5Z" fill="#0b0d10"/></g></svg>