<?xml version="1.0" encoding="UTF-8"?><svg id="b" xmlns="http://www.w3.org/2000/svg" width="300" height="65.03" viewBox="0 0 300 65.03"><g id="c"><path d="M109.54,7.03c-.3-3.57,2.36-6.7,5.93-7,.33-.03.65-.03.98,0h15.76c13.72,0,22.31,6.19,22.31,20.24,0,9.73-7.43,15.5-16.57,16.93l15.24,16.22c1.07,1.05,1.71,2.46,1.78,3.96,0,3.74-2.98,6.79-6.71,6.88-1.99,0-3.89-.83-5.22-2.3l-19.82-24h0v19.46c.26,3.72-2.55,6.94-6.26,7.2s-6.94-2.55-7.2-6.26c-.02-.31-.02-.62,0-.93l-.23-50.37ZM123,28.25h9.21c4.19.4,7.91-2.67,8.31-6.86.04-.37.04-.74.02-1.11.22-4.15-2.96-7.69-7.11-7.92-.41-.02-.82-.01-1.22.03h-9.21v15.86Z" fill="#fff"/><path d="M166.56,7.81c0-4.48,2.24-7.78,6.97-7.78h29.94c3.28-.29,6.18,2.14,6.47,5.42.02.26.03.52.02.77.08,3.33-2.55,6.1-5.88,6.18-.2,0-.4,0-.6-.02h-23.48v12.97h22.41c3.34-.23,6.24,2.29,6.47,5.63.01.18.02.36.01.53.02,3.4-2.72,6.18-6.12,6.2-.12,0-.24,0-.37,0h-22.41v13.62h24.33c3.26-.31,6.16,2.09,6.47,5.35.03.27.03.54.02.81.08,3.35-2.57,6.13-5.92,6.21-.19,0-.38,0-.57-.01h-30.81c-3.57.24-6.66-2.47-6.9-6.05-.01-.22-.02-.44,0-.67l-.03-49.17Z" fill="#fff"/><path d="M222.03,7.03c-.3-3.57,2.36-6.71,5.93-7,.35-.03.7-.03,1.05,0h15.86c13.17,0,22.93,8.6,22.93,21.41s-10.12,21.24-22.38,21.24h-9.96v14.69c0,3.71-3,6.72-6.71,6.72-3.71,0-6.72-3-6.72-6.71h0V7.03ZM235.46,30.84h9.15c4.94.15,9.07-3.73,9.22-8.67,0-.28,0-.56-.01-.83.29-4.94-3.48-9.17-8.41-9.46-.27-.02-.53-.02-.8-.01h-9.15v18.97Z" fill="#fff"/><path d="M294.78,36.68c-1.98,0-5.97-3.05-9.37-3.05-1.91,0-3.57.88-3.57,2.89,0,4.9,18.16,4.15,18.16,16.22,0,6.97-5.87,12.29-14.89,12.29-5.9,0-14.63-3.24-14.63-8.08.14-2.45,2.06-4.43,4.51-4.64,4.09,0,5.9,3.54,10.83,3.54,3.24,0,4.15-1.01,4.15-2.95,0-4.83-18.2-4.09-18.2-16.22,0-7.27,5.9-12.23,14.21-12.23,5.16,0,12.97,2.4,12.97,7.56.08,2.42-1.77,4.48-4.18,4.67Z" fill="#fff"/><path d="M50.97,9.92c0,2.35-1.9,4.25-4.25,4.25s-4.25-1.9-4.25-4.25,1.9-4.25,4.25-4.25,4.25,1.9,4.25,4.25h0Z" fill="#fff"/><path d="M48.11,13.68c2.63,1.72,4.9-1.75,5.94-3.24s6.49-8.6,7.01-9.28,1.36-1.59,2.34-.94.68,1.36.26,2.08-11.77,17.42-11.77,23.87c0,4.05,7.69,33.99,8.01,36.23s-.94,2.5-1.52,2.5c-.89.05-1.67-.58-1.82-1.46-.32-1.26-8.14-28.22-9.28-28.22h-1.01c-1.17,0-8.98,26.95-9.31,28.22-.15.88-.93,1.5-1.82,1.46-.68,0-1.91-.23-1.59-2.5s8.01-32.18,8.01-36.23c0-6.49-11.29-23.03-11.77-23.84s-.62-1.46.13-2.08,1.82.29,2.37.94c.55.65,5.84,7.69,6.97,9.28s3.24,4.93,5.94,3.24l2.92-.03Z" fill="#fff"/><path d="M18.44,18.13c0,2.01-1.63,3.63-3.63,3.63-2.01,0-3.63-1.63-3.63-3.63s1.63-3.63,3.63-3.63h0c2.01,0,3.63,1.63,3.63,3.63Z" fill="#fff"/><path d="M16,21.34c2.21,1.46,4.15-1.52,5.03-2.76s5.48-7.3,5.97-7.88,1.17-1.36,2.17-.94.55,1.17.19,1.78-10.18,14.92-10.18,20.4c0,3.47,6.49,28.9,6.81,30.85s-.78,2.11-1.36,2.11c-.76.04-1.42-.51-1.52-1.26-.42-1.04-6.91-24-7.91-24h-.88c-.97,0-7.62,22.96-7.91,24-.1.75-.76,1.31-1.52,1.26-.58,0-1.65-.19-1.36-2.11s6.81-27.37,6.81-30.85C10.33,26.46.6,12.48.3,11.67s-.58-1.26.19-1.91c.78-.65,1.56.26,2.01.81s4.99,6.49,5.97,7.88,2.82,4.22,5.03,2.76l2.5.13Z" fill="#fff"/><path d="M82.23,18.13c0,2.01-1.63,3.63-3.63,3.63-2.01,0-3.63-1.63-3.63-3.63s1.63-3.63,3.63-3.63,3.63,1.63,3.63,3.63h0Z" fill="#fff"/><path d="M79.8,21.34c2.24,1.46,4.15-1.52,5.03-2.76s5.51-7.3,5.97-7.88,1.17-1.36,2.01-.81.55,1.17.19,1.78-10.02,14.79-10.02,20.27c0,3.47,6.49,28.9,6.81,30.85s-.78,2.11-1.36,2.11c-.76.04-1.42-.51-1.52-1.26-.29-1.04-6.94-24-7.91-24h-.84c-1.01,0-7.65,22.96-7.95,24-.09.76-.76,1.32-1.52,1.26-.58,0-1.62-.19-1.36-2.11s6.81-27.37,6.81-30.85c0-5.48-9.73-19.46-10.02-20.27s-.55-1.26.23-1.78,1.52.26,1.98.81,4.99,6.49,5.97,7.88,2.82,4.22,5.03,2.76h2.5Z" fill="#fff"/></g></svg>