<?xml version="1.0" encoding="UTF-8"?><svg id="b" xmlns="http://www.w3.org/2000/svg" width="99.22" height="68.98" viewBox="0 0 99.22 68.98"><g id="c"><path d="M54.17,10.54c0,2.49-2.02,4.52-4.52,4.52s-4.52-2.02-4.52-4.52,2.02-4.52,4.52-4.52,4.52,2.02,4.52,4.52h0Z" fill="#0b0d10"/><path d="M51.13,14.54c2.79,1.83,5.21-1.86,6.31-3.45s6.89-9.13,7.45-9.86,1.45-1.69,2.48-1,.72,1.45.28,2.21-12.51,18.51-12.51,25.37c0,4.31,8.17,36.13,8.51,38.5s-1,2.65-1.62,2.65c-.94.05-1.77-.62-1.93-1.55-.34-1.34-8.65-29.99-9.86-29.99h-1.07c-1.24,0-9.55,28.65-9.89,29.99-.16.93-.99,1.6-1.93,1.55-.72,0-2.03-.24-1.69-2.65s8.51-34.19,8.51-38.5c0-6.89-12-24.47-12.51-25.34s-.65-1.55.14-2.21,1.93.31,2.52,1c.59.69,6.2,8.17,7.41,9.86s3.45,5.24,6.31,3.45l3.1-.03Z" fill="#0b0d10"/><path d="M19.59,19.26c0,2.13-1.73,3.86-3.86,3.86-2.13,0-3.86-1.73-3.86-3.86s1.73-3.86,3.86-3.86h0c2.13,0,3.86,1.73,3.86,3.86Z" fill="#0b0d10"/><path d="M17.01,22.68c2.34,1.55,4.41-1.62,5.34-2.93s5.83-7.76,6.34-8.38,1.24-1.45,2.31-1,.59,1.24.21,1.9-10.82,15.86-10.82,21.68c0,3.69,6.89,30.71,7.24,32.78s-.83,2.24-1.45,2.24c-.81.04-1.51-.54-1.62-1.34-.45-1.1-7.34-25.51-8.41-25.51h-.93c-1.03,0-8.1,24.41-8.41,25.51-.11.8-.81,1.39-1.62,1.34-.62,0-1.76-.21-1.45-2.24s7.24-29.09,7.24-32.78C10.98,28.12.63,13.27.32,12.4s-.62-1.34.21-2.03c.83-.69,1.65.28,2.14.86s5.31,6.89,6.34,8.38,3,4.48,5.34,2.93l2.65.14Z" fill="#0b0d10"/><path d="M87.4,19.26c0,2.13-1.73,3.86-3.86,3.86-2.13,0-3.86-1.73-3.86-3.86s1.73-3.86,3.86-3.86,3.86,1.73,3.86,3.86h0Z" fill="#0b0d10"/><path d="M84.81,22.68c2.38,1.55,4.41-1.62,5.34-2.93s5.86-7.76,6.34-8.38,1.24-1.45,2.14-.86.59,1.24.21,1.9-10.65,15.72-10.65,21.54c0,3.69,6.89,30.71,7.24,32.78s-.83,2.24-1.45,2.24c-.81.04-1.51-.54-1.62-1.34-.31-1.1-7.38-25.51-8.41-25.51h-.9c-1.07,0-8.14,24.41-8.45,25.51-.09.81-.81,1.41-1.62,1.34-.62,0-1.72-.21-1.45-2.24s7.24-29.09,7.24-32.78c0-5.83-10.34-20.68-10.65-21.54s-.59-1.34.24-1.9,1.62.28,2.1.86,5.31,6.89,6.34,8.38,3,4.48,5.34,2.93h2.65Z" fill="#0b0d10"/></g></svg>