<svg xmlns="http://www.w3.org/2000/svg" viewBox="116.00 -1490.00 15451.71 1490.00" fill="currentColor" role="img" aria-label="REPs — The Register of Exercise Professionals">
  <g transform="scale(1 -1)">
    <g>
      <path transform="translate(0.00 0)" d="M116 0V1490H726Q894 1490 1016.0 1429.5Q1138 1369 1203.5 1258.0Q1269 1147 1269 995Q1269 842 1202.0 733.5Q1135 625 1011.0 569.0Q887 513 716 513H327V792H652Q735 792 790.5 814.0Q846 836 874.5 881.0Q903 926 903 995Q903 1065 874.5 1111.0Q846 1157 790.0 1180.5Q734 1204 651 1204H469V0ZM934 0 571 681H949L1321 0Z"/>
      <path transform="translate(1407.20 0)" d="M116 0V1490H1150V1202H469V894H1096V612H469V288H1149V0Z"/>
      <path transform="translate(2707.40 0)" d="M116 0V1490H726Q894 1490 1016.0 1425.0Q1138 1360 1203.5 1244.0Q1269 1128 1269 975Q1269 821 1202.0 707.0Q1135 593 1011.0 529.0Q887 465 716 465H338V744H652Q735 744 791.0 773.0Q847 802 875.0 854.0Q903 906 903 975Q903 1045 875.0 1096.5Q847 1148 790.5 1176.0Q734 1204 651 1204H469V0Z"/>
      <path transform="translate(4093.60 0)" d="M586 -21Q443 -21 333.0 19.5Q223 60 154.0 136.5Q85 213 65 320L389 371Q410 298 460.0 261.0Q510 224 599 224Q672 224 714.0 249.5Q756 275 756 317Q756 356 722.5 379.5Q689 403 619 417L424 455Q258 487 175.5 567.5Q93 648 93 777Q93 889 153.5 968.0Q214 1047 324.5 1089.5Q435 1132 585 1132Q725 1132 828.5 1094.5Q932 1057 995.5 987.5Q1059 918 1078 822L770 773Q755 829 708.5 860.5Q662 892 591 892Q528 892 484.5 866.5Q441 841 441 798Q441 764 468.0 738.5Q495 713 567 699L781 659Q947 627 1028.5 553.0Q1110 479 1110 357Q1110 242 1042.5 157.0Q975 72 857.0 25.5Q739 -21 586 -21Z"/>
    </g>
    <g opacity="0.6">
      <path transform="translate(6959.03 818.17) scale(0.39285714285714285)" d="M98 1322V1490H1224V1322H757V0H567V1322Z"/>
      <path transform="translate(7478.39 818.17) scale(0.39285714285714285)" d="M338 670V0H158V1490H338V847H307Q358 1002 452.5 1067.0Q547 1132 674 1132Q787 1132 872.5 1085.5Q958 1039 1005.5 945.5Q1053 852 1053 710V0H872V695Q872 824 804.5 897.0Q737 970 620 970Q540 970 476.0 935.0Q412 900 375.0 833.0Q338 766 338 670Z"/>
      <path transform="translate(7954.14 818.17) scale(0.39285714285714285)" d="M628 -24Q466 -24 348.5 48.0Q231 120 167.5 249.0Q104 378 104 550Q104 722 166.0 853.0Q228 984 341.5 1058.0Q455 1132 607 1132Q696 1132 782.5 1102.5Q869 1073 939.5 1007.5Q1010 942 1052.0 835.0Q1094 728 1094 573V498H226V650H997L913 594Q913 704 878.5 789.5Q844 875 776.0 923.5Q708 972 607 972Q506 972 434.0 922.5Q362 873 324.0 793.5Q286 714 286 623V522Q286 398 329.0 311.5Q372 225 449.5 180.5Q527 136 629 136Q695 136 749.0 155.0Q803 174 842.0 212.5Q881 251 902 308L1076 260Q1050 176 988.0 112.0Q926 48 834.5 12.0Q743 -24 628 -24Z"/>
      <path transform="translate(8649.49 818.17) scale(0.39285714285714285)" d="M180 0V1490H690Q864 1490 976.5 1430.5Q1089 1371 1143.5 1267.0Q1198 1163 1198 1030Q1198 897 1143.5 795.0Q1089 693 977.0 635.5Q865 578 691 578H286V747H682Q800 747 871.5 781.5Q943 816 976.0 879.5Q1009 943 1009 1030Q1009 1119 976.0 1184.5Q943 1250 871.0 1286.5Q799 1323 680 1323H370V0ZM1036 0 676 671H890L1256 0Z"/>
      <path transform="translate(9167.28 818.17) scale(0.39285714285714285)" d="M628 -24Q466 -24 348.5 48.0Q231 120 167.5 249.0Q104 378 104 550Q104 722 166.0 853.0Q228 984 341.5 1058.0Q455 1132 607 1132Q696 1132 782.5 1102.5Q869 1073 939.5 1007.5Q1010 942 1052.0 835.0Q1094 728 1094 573V498H226V650H997L913 594Q913 704 878.5 789.5Q844 875 776.0 923.5Q708 972 607 972Q506 972 434.0 922.5Q362 873 324.0 793.5Q286 714 286 623V522Q286 398 329.0 311.5Q372 225 449.5 180.5Q527 136 629 136Q695 136 749.0 155.0Q803 174 842.0 212.5Q881 251 902 308L1076 260Q1050 176 988.0 112.0Q926 48 834.5 12.0Q743 -24 628 -24Z"/>
      <path transform="translate(9636.35 818.17) scale(0.39285714285714285)" d="M611 -442Q487 -442 396.5 -410.5Q306 -379 246.0 -327.0Q186 -275 151 -214L297 -120Q321 -152 356.5 -191.0Q392 -230 452.5 -257.5Q513 -285 611 -285Q745 -285 831.5 -221.0Q918 -157 918 -19V205H901Q882 173 847.5 129.0Q813 85 748.5 51.5Q684 18 576 18Q442 18 335.0 81.5Q228 145 166.0 267.0Q104 389 104 564Q104 737 165.0 864.5Q226 992 333.5 1062.0Q441 1132 580 1132Q688 1132 752.5 1096.5Q817 1061 852.0 1015.0Q887 969 906 939H923V1118H1098V-29Q1098 -173 1033.0 -264.5Q968 -356 857.5 -399.0Q747 -442 611 -442ZM606 178Q708 178 778.0 224.5Q848 271 884.0 358.5Q920 446 920 568Q920 687 884.5 777.5Q849 868 779.0 919.5Q709 971 606 971Q500 971 429.0 916.5Q358 862 322.5 771.0Q287 680 287 568Q287 453 323.0 365.0Q359 277 430.0 227.5Q501 178 606 178Z"/>
      <path transform="translate(10129.78 818.17) scale(0.39285714285714285)" d="M158 0V1118H338V0ZM249 1301Q198 1301 161.0 1336.0Q124 1371 124 1420Q124 1470 161.0 1504.5Q198 1539 249 1539Q301 1539 338.0 1504.5Q375 1470 375 1420Q375 1371 338.0 1336.0Q301 1301 249 1301Z"/>
      <path transform="translate(10324.64 818.17) scale(0.39285714285714285)" d="M538 -24Q423 -24 333.5 9.5Q244 43 186.0 109.0Q128 175 108 271L279 312Q303 220 369.5 177.0Q436 134 536 134Q653 134 722.5 184.0Q792 234 792 303Q792 361 751.5 399.5Q711 438 628 457L442 501Q290 537 216.0 612.5Q142 688 142 806Q142 902 196.0 975.5Q250 1049 343.5 1090.5Q437 1132 556 1132Q671 1132 751.5 1097.5Q832 1063 882.5 1002.5Q933 942 958 863L795 821Q772 881 718.5 930.0Q665 979 557 979Q457 979 390.5 933.0Q324 887 324 817Q324 755 369.0 717.5Q414 680 512 657L681 617Q833 581 906.0 505.5Q979 430 979 315Q979 217 923.5 140.5Q868 64 768.5 20.0Q669 -24 538 -24Z"/>
      <path transform="translate(10749.31 818.17) scale(0.39285714285714285)" d="M598 1118V964H20V1118ZM188 1384H368V290Q368 215 398.5 180.5Q429 146 500 146Q517 146 543.5 150.0Q570 154 592 158L629 6Q601 -4 565.5 -9.0Q530 -14 495 -14Q350 -14 269.0 62.5Q188 139 188 276Z"/>
      <path transform="translate(11012.53 818.17) scale(0.39285714285714285)" d="M628 -24Q466 -24 348.5 48.0Q231 120 167.5 249.0Q104 378 104 550Q104 722 166.0 853.0Q228 984 341.5 1058.0Q455 1132 607 1132Q696 1132 782.5 1102.5Q869 1073 939.5 1007.5Q1010 942 1052.0 835.0Q1094 728 1094 573V498H226V650H997L913 594Q913 704 878.5 789.5Q844 875 776.0 923.5Q708 972 607 972Q506 972 434.0 922.5Q362 873 324.0 793.5Q286 714 286 623V522Q286 398 329.0 311.5Q372 225 449.5 180.5Q527 136 629 136Q695 136 749.0 155.0Q803 174 842.0 212.5Q881 251 902 308L1076 260Q1050 176 988.0 112.0Q926 48 834.5 12.0Q743 -24 628 -24Z"/>
      <path transform="translate(11481.60 818.17) scale(0.39285714285714285)" d="M158 0V1118H332V946H344Q375 1031 454.5 1082.5Q534 1134 634 1134Q654 1134 681.5 1133.0Q709 1132 725 1131V950Q717 952 685.0 956.0Q653 960 617 960Q537 960 473.5 926.5Q410 893 374.0 834.5Q338 776 338 700V0Z"/>
      <path transform="translate(12010.78 818.17) scale(0.39285714285714285)" d="M613 -24Q461 -24 346.5 48.0Q232 120 168.0 250.0Q104 380 104 552Q104 727 168.0 857.5Q232 988 346.5 1060.0Q461 1132 613 1132Q766 1132 881.0 1060.0Q996 988 1060.0 857.5Q1124 727 1124 552Q1124 380 1060.0 250.0Q996 120 881.0 48.0Q766 -24 613 -24ZM613 137Q726 137 799.0 195.0Q872 253 907.0 347.5Q942 442 942 552Q942 663 907.0 758.5Q872 854 799.0 912.5Q726 971 613 971Q501 971 429.0 912.5Q357 854 322.0 759.0Q287 664 287 552Q287 442 322.0 347.5Q357 253 429.0 195.0Q501 137 613 137Z"/>
      <path transform="translate(12493.21 818.17) scale(0.39285714285714285)" d="M678 1118V964H20V1118ZM240 0V1267Q240 1364 285.5 1429.0Q331 1494 404.0 1527.0Q477 1560 558 1560Q622 1560 664.0 1549.5Q706 1539 726 1530L676 1376Q662 1381 639.5 1387.0Q617 1393 579 1393Q496 1393 458.0 1350.5Q420 1308 420 1227V0Z"/>
      <path transform="translate(6959.03 86.47) scale(0.39285714285714285)" d="M180 0V1490H1088V1322H370V836H1039V668H370V168H1097V0Z"/>
      <path transform="translate(7442.64 86.47) scale(0.39285714285714285)" d="M65 0 506 643 505 505 88 1118H298L437 901Q491 817 530.5 744.0Q570 671 612 603H518Q561 671 596.5 744.0Q632 817 687 901L829 1118H1035L616 497V630L1053 0H844L680 251Q627 333 588.5 403.5Q550 474 509 539H604Q563 474 528.0 403.5Q493 333 439 251L273 0Z"/>
      <path transform="translate(7881.85 86.47) scale(0.39285714285714285)" d="M628 -24Q466 -24 348.5 48.0Q231 120 167.5 249.0Q104 378 104 550Q104 722 166.0 853.0Q228 984 341.5 1058.0Q455 1132 607 1132Q696 1132 782.5 1102.5Q869 1073 939.5 1007.5Q1010 942 1052.0 835.0Q1094 728 1094 573V498H226V650H997L913 594Q913 704 878.5 789.5Q844 875 776.0 923.5Q708 972 607 972Q506 972 434.0 922.5Q362 873 324.0 793.5Q286 714 286 623V522Q286 398 329.0 311.5Q372 225 449.5 180.5Q527 136 629 136Q695 136 749.0 155.0Q803 174 842.0 212.5Q881 251 902 308L1076 260Q1050 176 988.0 112.0Q926 48 834.5 12.0Q743 -24 628 -24Z"/>
      <path transform="translate(8350.92 86.47) scale(0.39285714285714285)" d="M158 0V1118H332V946H344Q375 1031 454.5 1082.5Q534 1134 634 1134Q654 1134 681.5 1133.0Q709 1132 725 1131V950Q717 952 685.0 956.0Q653 960 617 960Q537 960 473.5 926.5Q410 893 374.0 834.5Q338 776 338 700V0Z"/>
      <path transform="translate(8653.81 86.47) scale(0.39285714285714285)" d="M613 -24Q461 -24 346.5 48.0Q232 120 168.0 250.0Q104 380 104 552Q104 727 168.0 857.5Q232 988 346.5 1060.0Q461 1132 613 1132Q694 1132 766.0 1111.0Q838 1090 897.5 1050.5Q957 1011 1000.0 953.5Q1043 896 1066 823L893 774Q881 817 856.0 853.0Q831 889 795.5 915.5Q760 942 714.0 956.5Q668 971 613 971Q501 971 429.0 912.5Q357 854 322.0 759.0Q287 664 287 552Q287 442 322.0 347.5Q357 253 429.0 195.0Q501 137 613 137Q669 137 716.0 152.0Q763 167 799.5 194.5Q836 222 861.0 260.0Q886 298 898 343L1070 294Q1048 219 1004.5 160.5Q961 102 901.0 60.5Q841 19 768.0 -2.5Q695 -24 613 -24Z"/>
      <path transform="translate(9113.46 86.47) scale(0.39285714285714285)" d="M158 0V1118H338V0ZM249 1301Q198 1301 161.0 1336.0Q124 1371 124 1420Q124 1470 161.0 1504.5Q198 1539 249 1539Q301 1539 338.0 1504.5Q375 1470 375 1420Q375 1371 338.0 1336.0Q301 1301 249 1301Z"/>
      <path transform="translate(9308.31 86.47) scale(0.39285714285714285)" d="M538 -24Q423 -24 333.5 9.5Q244 43 186.0 109.0Q128 175 108 271L279 312Q303 220 369.5 177.0Q436 134 536 134Q653 134 722.5 184.0Q792 234 792 303Q792 361 751.5 399.5Q711 438 628 457L442 501Q290 537 216.0 612.5Q142 688 142 806Q142 902 196.0 975.5Q250 1049 343.5 1090.5Q437 1132 556 1132Q671 1132 751.5 1097.5Q832 1063 882.5 1002.5Q933 942 958 863L795 821Q772 881 718.5 930.0Q665 979 557 979Q457 979 390.5 933.0Q324 887 324 817Q324 755 369.0 717.5Q414 680 512 657L681 617Q833 581 906.0 505.5Q979 430 979 315Q979 217 923.5 140.5Q868 64 768.5 20.0Q669 -24 538 -24Z"/>
      <path transform="translate(9732.99 86.47) scale(0.39285714285714285)" d="M628 -24Q466 -24 348.5 48.0Q231 120 167.5 249.0Q104 378 104 550Q104 722 166.0 853.0Q228 984 341.5 1058.0Q455 1132 607 1132Q696 1132 782.5 1102.5Q869 1073 939.5 1007.5Q1010 942 1052.0 835.0Q1094 728 1094 573V498H226V650H997L913 594Q913 704 878.5 789.5Q844 875 776.0 923.5Q708 972 607 972Q506 972 434.0 922.5Q362 873 324.0 793.5Q286 714 286 623V522Q286 398 329.0 311.5Q372 225 449.5 180.5Q527 136 629 136Q695 136 749.0 155.0Q803 174 842.0 212.5Q881 251 902 308L1076 260Q1050 176 988.0 112.0Q926 48 834.5 12.0Q743 -24 628 -24Z"/>
      <path transform="translate(10428.35 86.47) scale(0.39285714285714285)" d="M180 0V1490H690Q864 1490 976.5 1426.5Q1089 1363 1143.5 1256.0Q1198 1149 1198 1016Q1198 883 1143.5 775.0Q1089 667 977.0 603.0Q865 539 691 539H330V706H682Q800 706 872.0 746.5Q944 787 976.5 857.5Q1009 928 1009 1016Q1009 1104 976.5 1173.5Q944 1243 871.5 1283.0Q799 1323 680 1323H370V0Z"/>
      <path transform="translate(10942.21 86.47) scale(0.39285714285714285)" d="M158 0V1118H332V946H344Q375 1031 454.5 1082.5Q534 1134 634 1134Q654 1134 681.5 1133.0Q709 1132 725 1131V950Q717 952 685.0 956.0Q653 960 617 960Q537 960 473.5 926.5Q410 893 374.0 834.5Q338 776 338 700V0Z"/>
      <path transform="translate(11245.10 86.47) scale(0.39285714285714285)" d="M613 -24Q461 -24 346.5 48.0Q232 120 168.0 250.0Q104 380 104 552Q104 727 168.0 857.5Q232 988 346.5 1060.0Q461 1132 613 1132Q766 1132 881.0 1060.0Q996 988 1060.0 857.5Q1124 727 1124 552Q1124 380 1060.0 250.0Q996 120 881.0 48.0Q766 -24 613 -24ZM613 137Q726 137 799.0 195.0Q872 253 907.0 347.5Q942 442 942 552Q942 663 907.0 758.5Q872 854 799.0 912.5Q726 971 613 971Q501 971 429.0 912.5Q357 854 322.0 759.0Q287 664 287 552Q287 442 322.0 347.5Q357 253 429.0 195.0Q501 137 613 137Z"/>
      <path transform="translate(11727.53 86.47) scale(0.39285714285714285)" d="M678 1118V964H20V1118ZM240 0V1267Q240 1364 285.5 1429.0Q331 1494 404.0 1527.0Q477 1560 558 1560Q622 1560 664.0 1549.5Q706 1539 726 1530L676 1376Q662 1381 639.5 1387.0Q617 1393 579 1393Q496 1393 458.0 1350.5Q420 1308 420 1227V0Z"/>
      <path transform="translate(12025.31 86.47) scale(0.39285714285714285)" d="M628 -24Q466 -24 348.5 48.0Q231 120 167.5 249.0Q104 378 104 550Q104 722 166.0 853.0Q228 984 341.5 1058.0Q455 1132 607 1132Q696 1132 782.5 1102.5Q869 1073 939.5 1007.5Q1010 942 1052.0 835.0Q1094 728 1094 573V498H226V650H997L913 594Q913 704 878.5 789.5Q844 875 776.0 923.5Q708 972 607 972Q506 972 434.0 922.5Q362 873 324.0 793.5Q286 714 286 623V522Q286 398 329.0 311.5Q372 225 449.5 180.5Q527 136 629 136Q695 136 749.0 155.0Q803 174 842.0 212.5Q881 251 902 308L1076 260Q1050 176 988.0 112.0Q926 48 834.5 12.0Q743 -24 628 -24Z"/>
      <path transform="translate(12494.39 86.47) scale(0.39285714285714285)" d="M538 -24Q423 -24 333.5 9.5Q244 43 186.0 109.0Q128 175 108 271L279 312Q303 220 369.5 177.0Q436 134 536 134Q653 134 722.5 184.0Q792 234 792 303Q792 361 751.5 399.5Q711 438 628 457L442 501Q290 537 216.0 612.5Q142 688 142 806Q142 902 196.0 975.5Q250 1049 343.5 1090.5Q437 1132 556 1132Q671 1132 751.5 1097.5Q832 1063 882.5 1002.5Q933 942 958 863L795 821Q772 881 718.5 930.0Q665 979 557 979Q457 979 390.5 933.0Q324 887 324 817Q324 755 369.0 717.5Q414 680 512 657L681 617Q833 581 906.0 505.5Q979 430 979 315Q979 217 923.5 140.5Q868 64 768.5 20.0Q669 -24 538 -24Z"/>
      <path transform="translate(12919.06 86.47) scale(0.39285714285714285)" d="M538 -24Q423 -24 333.5 9.5Q244 43 186.0 109.0Q128 175 108 271L279 312Q303 220 369.5 177.0Q436 134 536 134Q653 134 722.5 184.0Q792 234 792 303Q792 361 751.5 399.5Q711 438 628 457L442 501Q290 537 216.0 612.5Q142 688 142 806Q142 902 196.0 975.5Q250 1049 343.5 1090.5Q437 1132 556 1132Q671 1132 751.5 1097.5Q832 1063 882.5 1002.5Q933 942 958 863L795 821Q772 881 718.5 930.0Q665 979 557 979Q457 979 390.5 933.0Q324 887 324 817Q324 755 369.0 717.5Q414 680 512 657L681 617Q833 581 906.0 505.5Q979 430 979 315Q979 217 923.5 140.5Q868 64 768.5 20.0Q669 -24 538 -24Z"/>
      <path transform="translate(13343.74 86.47) scale(0.39285714285714285)" d="M158 0V1118H338V0ZM249 1301Q198 1301 161.0 1336.0Q124 1371 124 1420Q124 1470 161.0 1504.5Q198 1539 249 1539Q301 1539 338.0 1504.5Q375 1470 375 1420Q375 1371 338.0 1336.0Q301 1301 249 1301Z"/>
      <path transform="translate(13538.60 86.47) scale(0.39285714285714285)" d="M613 -24Q461 -24 346.5 48.0Q232 120 168.0 250.0Q104 380 104 552Q104 727 168.0 857.5Q232 988 346.5 1060.0Q461 1132 613 1132Q766 1132 881.0 1060.0Q996 988 1060.0 857.5Q1124 727 1124 552Q1124 380 1060.0 250.0Q996 120 881.0 48.0Q766 -24 613 -24ZM613 137Q726 137 799.0 195.0Q872 253 907.0 347.5Q942 442 942 552Q942 663 907.0 758.5Q872 854 799.0 912.5Q726 971 613 971Q501 971 429.0 912.5Q357 854 322.0 759.0Q287 664 287 552Q287 442 322.0 347.5Q357 253 429.0 195.0Q501 137 613 137Z"/>
      <path transform="translate(14021.03 86.47) scale(0.39285714285714285)" d="M338 670V0H158V1118H331L332 847H307Q358 1002 452.5 1067.0Q547 1132 674 1132Q787 1132 872.0 1085.5Q957 1039 1004.5 945.5Q1052 852 1052 710V0H872V695Q872 824 804.5 897.0Q737 970 620 970Q540 970 476.0 935.0Q412 900 375.0 833.0Q338 766 338 670Z"/>
      <path transform="translate(14496.39 86.47) scale(0.39285714285714285)" d="M471 -26Q365 -26 278.5 14.0Q192 54 141.0 131.0Q90 208 90 318Q90 414 128.0 474.0Q166 534 229.5 568.5Q293 603 370.0 620.0Q447 637 525 647Q625 660 688.0 667.0Q751 674 781.5 691.0Q812 708 812 749V755Q812 825 786.0 873.5Q760 922 708.0 948.0Q656 974 578 974Q498 974 441.0 949.0Q384 924 348.5 886.5Q313 849 295 810L122 867Q165 969 238.0 1026.5Q311 1084 399.0 1108.0Q487 1132 573 1132Q629 1132 700.5 1118.5Q772 1105 838.5 1065.0Q905 1025 948.5 946.5Q992 868 992 737V0H815V152H803Q784 113 742.0 71.5Q700 30 633.0 2.0Q566 -26 471 -26ZM502 133Q602 133 671.0 172.0Q740 211 776.0 273.5Q812 336 812 404V559Q801 546 764.0 535.5Q727 525 679.5 517.0Q632 509 587.5 503.5Q543 498 517 495Q452 487 395.5 467.5Q339 448 305.0 410.5Q271 373 271 309Q271 251 301.0 212.0Q331 173 383.0 153.0Q435 133 502 133Z"/>
      <path transform="translate(14948.17 86.47) scale(0.39285714285714285)" d="M338 1490V0H158V1490Z"/>
      <path transform="translate(15143.03 86.47) scale(0.39285714285714285)" d="M538 -24Q423 -24 333.5 9.5Q244 43 186.0 109.0Q128 175 108 271L279 312Q303 220 369.5 177.0Q436 134 536 134Q653 134 722.5 184.0Q792 234 792 303Q792 361 751.5 399.5Q711 438 628 457L442 501Q290 537 216.0 612.5Q142 688 142 806Q142 902 196.0 975.5Q250 1049 343.5 1090.5Q437 1132 556 1132Q671 1132 751.5 1097.5Q832 1063 882.5 1002.5Q933 942 958 863L795 821Q772 881 718.5 930.0Q665 979 557 979Q457 979 390.5 933.0Q324 887 324 817Q324 755 369.0 717.5Q414 680 512 657L681 617Q833 581 906.0 505.5Q979 430 979 315Q979 217 923.5 140.5Q868 64 768.5 20.0Q669 -24 538 -24Z"/>
    </g>
  </g>
  <line x1="6081.31" y1="-1415.50" x2="6081.31" y2="-74.50" stroke="currentColor" stroke-width="30.72" opacity="0.15" stroke-linecap="square"/>
</svg>