<?xml version="1.0" encoding="utf-8"?>
<!-- Generator: Adobe Illustrator 26.0.3, SVG Export Plug-In . SVG Version: 6.00 Build 0)  -->
<svg version="1.1" id="Layer_1" xmlns="http://www.w3.org/2000/svg" xmlns:xlink="http://www.w3.org/1999/xlink" x="0px" y="0px"
	 viewBox="0 0 603.4 126.5" style="enable-background:new 0 0 603.4 126.5;" xml:space="preserve">
<style type="text/css">
	.st0{fill:#181C20;}
</style>
<g>
	<path class="st0" d="M0,96.5C0,64.2,0,32.3,0,0.3C0.6,0.2,1,0,1.5,0c16.9,0.1,33.7,0.1,50.6,0.5c3.2,0.1,6.4,1,9.5,2.1
		c8.5,3.1,13.4,9.2,14.3,18.2c0.9,9.1-0.7,17.3-9.3,22.5c-0.4,0.2-0.7,0.6-1.4,1.1c0.5,0.3,0.9,0.6,1.2,0.8
		c9.3,4.5,13.2,12.2,13.1,22.2C79.4,77.9,75.6,86.5,66,91.9c-6.1,3.4-12.9,4.7-19.8,4.8c-14.8,0.2-29.6,0.1-44.5,0.1
		C1.2,96.7,0.8,96.6,0,96.5z M19,78.8c9.9,0,19.4,0.4,28.9-0.1c7.4-0.4,10.7-5,10.7-12.4c-0.1-7.4-3.5-11.5-11.1-11.9
		C38.3,53.9,29.2,54,20,54c-0.3,0-0.6,0.3-1,0.5C19,62.5,19,70.5,19,78.8z M18.9,37.3c7.8,0,15,0,22.2,0c1.8,0,3.6-0.1,5.4-0.2
		c1.1-0.1,2.1-0.4,3.2-0.8c4.5-1.5,6.4-4.8,6.2-10.2c-0.2-4.6-2.3-7.3-6.9-8.4c-1.7-0.4-3.6-0.7-5.3-0.7c-8.2-0.1-16.3,0-24.7,0
		c0,5.6,0,10.8,0,15.9C18.9,34.1,18.9,35.4,18.9,37.3z"/>
	<path class="st0" d="M354.7,96.8c-6.5,0-12.6,0.1-18.6-0.1c-0.9,0-2-1.1-2.4-2c-0.8-1.8-1.1-3.8-1.8-6.1
		c-5.8,7.4-13.3,10.5-22.2,10.6c-17,0.3-23.5-11.7-22-25.7c1.1-10.5,6.5-15.9,17.4-18.3c6.9-1.5,14-2.4,21-3.6
		c3.3-0.5,5.6-1.9,5.7-5.7c0.1-4.3-1.5-6.9-5.6-7.5c-4-0.5-8.1-0.4-12.1,0.2c-3.3,0.5-5.3,3-5.9,6.5c-0.1,0.9-1.2,2.3-1.8,2.3
		c-5.3,0.2-10.5,0.1-16.1,0.1c-0.5-8.7,2.2-15.9,9.6-19.9c14-7.6,28.5-6.9,42.5,0.3c5.5,2.8,8,8.1,8.1,14.3c0,13.5,0,26.9,0,40.3
		c0,3.8,0.1,7.7,3.5,10.6C354.5,93.8,354.3,95.3,354.7,96.8z M332.3,62.1c-6.6,1.6-12.6,3.1-18.6,4.7c-1.6,0.4-3.1,1.2-4.5,2.2
		c-3.1,2.1-3.5,5.2-3.1,8.6c0.4,3,2.1,5.1,4.9,6.2c8,3.2,18.5-1.9,20.4-10.3C332.1,69.8,332,66,332.3,62.1z"/>
	<path class="st0" d="M148.5,96.8c-6.6,0-12.4,0.1-18.3-0.1c-0.9,0-2.2-1.2-2.7-2.2c-0.8-1.7-1-3.6-1.6-6
		c-4.5,5.8-10.1,9.3-16.9,10.2c-7.7,1.1-15.4,0.9-21.3-5c-6.9-6.8-7.3-15.4-5.4-24.2c1.8-8.6,8.6-12.4,16.5-14.3
		c5.8-1.4,11.8-2,17.8-3c1.2-0.2,2.4-0.5,3.5-0.6c3.4-0.5,5.6-2.2,5.7-5.8c0.1-3.8-1.7-6.7-5.5-7.3c-3.5-0.6-7.2-0.8-10.7-0.3
		c-5.1,0.7-7,3.3-7.8,9.2c-5.8,0-11.6,0-17.4,0c-1.2-8,3-16.6,10.6-20.4c13.1-6.5,26.4-5.7,39.4-0.1c7.1,3,10.1,9.2,10,16.9
		c-0.1,12.7-0.1,25.5,0,38.2c0,4-0.3,8.2,3.4,11.3C148.4,93.8,148.2,95.2,148.5,96.8z M125.8,62.1c-4.8,1.2-9.4,2.4-14,3.7
		c-2.5,0.7-5.1,1.3-7.5,2.4c-3.6,1.7-5,4.8-4.5,9c0.5,3.7,2.6,6,6.3,6.9c9.5,2.5,18.8-4,19.6-13.8C126.1,67.6,125.8,64.9,125.8,62.1
		z"/>
	<path class="st0" d="M602.2,75C599.3,84.9,594,92,585,95.7c-12.7,5.3-25.2,5.1-36.6-3.3c-6.8-5-10.3-12.3-12-20.3
		c-1.8-8.6-1.7-17.2,0.6-25.7c4.5-16.7,19.6-26.1,37.1-23.5c17.2,2.6,27.4,13.6,28.6,31c0.3,3.9,0.4,7.8,0.6,12.1
		c-16.4,0-32.2,0-47.9,0c-0.6,11.9,7.5,19,18.8,16.3c2.6-0.6,5.3-2.5,7-4.5c1.7-2,3-2.9,5.6-2.8C591.7,75.2,596.7,75,602.2,75z
		 M583,53.4c0.3-8.9-4.9-14.5-13.4-14.7c-8.4-0.2-14,5.5-14.2,14.7C564.6,53.4,573.7,53.4,583,53.4z"/>
	<path class="st0" d="M394.6,25.3c6.8,0,13.2-0.1,19.5,0.1c0.8,0,1.9,1.6,2.2,2.7c4.4,14.4,8.6,28.9,12.9,43.4
		c0.4,1.2,0.8,2.4,1.5,4.6c0.7-1.9,1.1-2.9,1.4-4c4.1-14.5,8.3-29,12.4-43.5c0.7-2.5,1.8-3.5,4.4-3.3c5.4,0.2,10.8,0.1,16.7,0.1
		c-3,8.7-5.9,16.9-8.8,25.1c-7,20-13.9,40-21,60c-4.5,12.7-16.3,18.8-29.1,15c-0.7-0.2-1.7-1.4-1.7-2.2c-0.2-4.3-0.1-8.6-0.1-13.3
		c1.8,0,3.4,0,4.9,0c8.8-0.2,12.9-6,10-14.2c-7.8-21.9-15.6-43.8-23.5-65.6C395.6,28.7,395.2,27.2,394.6,25.3z"/>
	<path class="st0" d="M239.3,96.5c-6.8,0-12.9,0-19.2,0c0-23.7,0-47.2,0-70.9c6.1,0,12.2,0,18.6,0c0,2.4,0,4.7,0,8
		c5-5.5,10.2-9,16.8-9.8c8.6-1.1,16.9-0.5,23.3,6.4c4.1,4.4,5.3,10,5.3,15.7c0.2,16.4,0.1,32.9,0.1,49.3c0,0.3-0.2,0.7-0.3,1.3
		c-6.2,0-12.4,0-19,0c0-1.4,0-2.7,0-4c0-12.1,0-24.2,0-36.4c0-1.3,0-2.6,0-4c-0.2-8.9-3.4-12.8-10.5-13c-8.6-0.2-14.7,5-14.9,13.2
		c-0.3,10.9-0.1,21.8-0.1,32.8C239.3,88.9,239.3,92.6,239.3,96.5z"/>
	<path class="st0" d="M487,96.8c-6,0-11.7,0.1-17.3-0.1c-0.7,0-1.9-1.8-1.9-2.9c-0.1-8.8-0.1-17.5-0.1-26.3c0-12.6,0-25.2,0-37.8
		c0-1.3,0-2.6,0-4.1c6.4,0,12.4,0,18.7,0c0,2.4,0,4.7,0,7.9c1.6-1.5,2.5-2.4,3.4-3.2c7.8-7.3,22-9.1,31.4-4.2
		c7.5,3.9,10.3,10.8,10.5,18.5c0.4,17,0.1,34.1,0.1,51.2c0,0.2-0.2,0.4-0.4,1c-5.5,0-11.1,0-16.7,0c-2.6,0-1.9-2.1-1.9-3.4
		c0-12.4,0-24.7,0-37.1c0-1.8-0.1-3.6-0.2-5.4c-0.3-4.9-1.3-9.4-6.9-11c-5.6-1.6-12.7,0.2-15.5,4.8c-1.7,2.8-2.9,6.4-3,9.7
		C486.8,67,487,79.8,487,92.5C487,93.8,487,95.1,487,96.8z"/>
	<path class="st0" d="M195.9,96.5c0-13.7,0-27,0-40.3c0-2-0.1-4.1-0.3-6.1c-0.4-4.3-1.4-8.5-6.2-10c-5.4-1.7-10.5-0.9-14.9,2.9
		c-3.5,3.1-4.5,7.3-4.5,11.7c-0.1,12.6,0,25.2,0,37.8c0,1.3,0,2.6,0,4.1c-6.4,0-12.5,0-18.9,0c0-23.7,0-47.1,0-70.9
		c6,0,12.1,0,18.4,0c0.1,2.3,0.2,4.6,0.4,7.5c4.8-5.1,10-8.4,16.4-9.3c6-0.9,11.8-0.5,17.4,1.9c7.1,3.2,10.7,9.3,10.9,16.6
		c0.5,18,0.1,36,0.1,54.2C208.6,96.5,202.5,96.5,195.9,96.5z"/>
	<path class="st0" d="M392.1,82.7c0,5.1,0,9.6,0,15c-6.6-0.3-13.1-0.2-19.5-1.1c-6.3-0.9-9.8-5.5-10-12.7
		c-0.4-11.1-0.4-22.3-0.5-33.5c0-3.8,0-7.6,0-11.8c-3.2,0-6.1,0-9.2,0c0-4.6,0-8.8,0-13.4c3,0,5.8,0,9.1,0c0-6.6,0-12.8,0-19.2
		c6.6,0,12.7,0,19.2,0c0,6.3,0,12.5,0,19.1c3.7,0,7.2,0,10.8,0c0,4.7,0,8.9,0,13.4c-3.5,0-6.8,0-10.5,0c-0.1,1.4-0.2,2.5-0.2,3.7
		c0,11.5,0,23,0,34.5c0,5.2,0.5,5.7,5.8,5.9C388.6,82.8,390.1,82.7,392.1,82.7z"/>
</g>
</svg>
