<svg xmlns="http://www.w3.org/2000/svg" xmlns:xlink="http://www.w3.org/1999/xlink" version="1.1" id="Layer_1" x="0px" y="0px" viewBox="0 0 259 41" style="enable-background:new 0 0 259 41;" xml:space="preserve" width="259"  height="41" >
<style type="text/css">
	.st0{clip-path:url(#SVGID_00000034782163600804829990000007716130455112744120_);}
	.st1{fill:#5DBB57;}
	.st2{fill:#272727;}
</style>
<g>
	<defs>
		<rect id="SVGID_1_" width="259" height="41"/>
	</defs>
	<clipPath id="SVGID_00000024714827293029461770000003501073546635829383_">
		<use xlink:href="#SVGID_1_" style="overflow:visible;"/>
	</clipPath>
	<g style="clip-path:url(#SVGID_00000024714827293029461770000003501073546635829383_);">
		<path class="st1" d="M225,16.7c0.6,0,1.1-0.5,1.1-1.1c0-0.6-0.5-1.1-1.1-1.1c-0.6,0-1.1,0.5-1.1,1.1    C223.8,16.2,224.3,16.7,225,16.7z"/>
		<path class="st1" d="M229,13.6c0.7,0,1.3-0.6,1.3-1.3c0-0.7-0.6-1.3-1.3-1.3c-0.7,0-1.3,0.6-1.3,1.3C227.6,13,228.2,13.6,229,13.6    z"/>
		<path class="st1" d="M232.9,10.6c0.9,0,1.7-0.7,1.7-1.7c0-0.9-0.7-1.7-1.7-1.7c-0.9,0-1.7,0.7-1.7,1.7    C231.3,9.8,232,10.6,232.9,10.6z"/>
		<path class="st1" d="M237,7.4c1,0,1.8-0.8,1.8-1.9c0-0.1,0-0.2,0-0.2V5.2c0,0,0,0.4,0-0.1s0.5-1,1-1c0,0,0,0,0,0    c0.1,0,0.1,0,0.2,0c0.1,0,0.1,0,0.2,0c0.1,0,0.1,0,0.2,0c0.1,0,0.1,0,0.2,0s0.1,0,0.2,0h0.2c1.2,0,2.1-0.9,2.1-2.1h0    c0-1.2-0.9-2.1-2.1-2.1c-1.2,0-2.1,0.9-2.1,2.1c0,0.1,0,0.3,0,0.4c0,0.1,0-0.4,0,0.2s-0.5,1-1,1h-0.1c0,0-0.1,0-0.1,0    c0,0-0.1,0-0.1,0c0,0-0.1,0-0.1,0c0,0-0.1,0-0.1,0H237c-1,0-1.8,0.8-1.8,1.9S235.9,7.4,237,7.4L237,7.4z"/>
		<path class="st1" d="M232.4,18.7c0.6-0.1,1-0.7,0.8-1.3c-0.1-0.6-0.7-1-1.3-0.8c-0.6,0.1-1,0.7-0.8,1.3    C231.2,18.5,231.8,18.9,232.4,18.7z"/>
		<path class="st1" d="M236.3,15.6c0.7-0.1,1.2-0.8,1.1-1.5c-0.1-0.7-0.8-1.2-1.5-1.1s-1.2,0.8-1.1,1.5S235.6,15.7,236.3,15.6z"/>
		<path class="st1" d="M240.1,12.6c0.9,0,1.7-0.7,1.7-1.7c0-0.9-0.7-1.7-1.7-1.7c-0.9,0-1.7,0.7-1.7,1.7    C238.4,11.8,239.2,12.6,240.1,12.6z"/>
		<path class="st1" d="M242.3,7.5c0,1,0.8,1.9,1.9,1.9s1.9-0.8,1.9-1.9c0-0.1,0-0.2,0-0.2V7.2c0,0,0,0.4,0-0.1s0.5-1,1-1    c0,0,0,0,0,0s0.1,0,0.2,0c0.1,0,0.1,0,0.2,0c0.1,0,0.1,0,0.2,0s0.1,0,0.2,0s0.1,0,0.2,0h0.2c1.2,0,2.1-0.9,2.1-2.1h0    c0-1.2-0.9-2.1-2.1-2.1c-1.2,0-2.1,0.9-2.1,2.1c0,0.1,0,0.3,0,0.4c0,0.1,0-0.4,0,0.2c0,0.6-0.5,1-1,1h-0.1c0,0-0.1,0-0.1,0    c0,0-0.1,0-0.1,0c0,0-0.1,0-0.1,0c0,0-0.1,0-0.1,0h-0.1C243.1,5.7,242.3,6.5,242.3,7.5L242.3,7.5z"/>
		<path class="st1" d="M241.2,27.6c0.2-0.6,0-1.2-0.6-1.5c-0.6-0.2-1.2,0-1.5,0.6c-0.2,0.6,0,1.2,0.6,1.5    C240.3,28.5,240.9,28.2,241.2,27.6z"/>
		<path class="st1" d="M244.1,25.2c0.7,0,1.3-0.6,1.3-1.3c0-0.7-0.6-1.3-1.3-1.3s-1.3,0.6-1.3,1.3C242.8,24.6,243.4,25.2,244.1,25.2    z"/>
		<path class="st1" d="M248.1,22.1c0.9,0,1.7-0.7,1.7-1.7c0-0.9-0.7-1.7-1.7-1.7c-0.9,0-1.7,0.7-1.7,1.7    C246.4,21.4,247.2,22.1,248.1,22.1z"/>
		<path class="st1" d="M254,17.1c0-0.1,0-0.2,0-0.2v-0.1c0,0,0,0.4,0-0.1s0.5-1,1-1c0,0,0,0,0,0c0.1,0,0.1,0,0.2,0    c0.1,0,0.1,0,0.2,0c0.1,0,0.1,0,0.2,0s0.1,0,0.2,0c0.1,0,0.1,0,0.2,0h0.2c1.2,0,2.1-0.9,2.1-2.1h0c0-1.2-0.9-2.1-2.1-2.1    s-2.1,0.9-2.1,2.1c0,0.1,0,0.3,0,0.4c0,0.1,0-0.4,0,0.2c0,0.6-0.5,1-1,1h-0.1c0,0-0.1,0-0.1,0c0,0-0.1,0-0.1,0c0,0-0.1,0-0.1,0    c0,0-0.1,0-0.1,0h-0.1c-1,0-1.9,0.8-1.9,1.9c0,1,0.8,1.9,1.9,1.9C253.1,18.9,254,18.1,254,17.1L254,17.1z"/>
		<path class="st1" d="M241.9,35.1c0.3-0.5,0.2-1.2-0.4-1.5c-0.5-0.3-1.2-0.2-1.5,0.4c-0.3,0.5-0.2,1.2,0.4,1.5    C240.9,35.8,241.6,35.6,241.9,35.1z"/>
		<path class="st1" d="M245,32.5c0.7,0,1.3-0.6,1.3-1.3c0-0.7-0.6-1.3-1.3-1.3s-1.3,0.6-1.3,1.3C243.6,31.9,244.2,32.5,245,32.5z"/>
		<path class="st1" d="M248.9,29.5c0.9,0,1.7-0.7,1.7-1.7c0-0.9-0.7-1.7-1.7-1.7s-1.7,0.7-1.7,1.7C247.3,28.7,248,29.5,248.9,29.5z"/>
		<path class="st1" d="M259,21c0-1.2-0.9-2.1-2.1-2.1c-1.2,0-2.1,0.9-2.1,2.1c0,0.1,0,0.3,0,0.4c0,0.1,0-0.4,0,0.2s-0.5,1-1,1h-0.1    c0,0-0.1,0-0.1,0c0,0-0.1,0-0.1,0c0,0-0.1,0-0.1,0c0,0-0.1,0-0.1,0H253c-1,0-1.9,0.8-1.9,1.9c0,1,0.8,1.9,1.9,1.9    c1,0,1.8-0.8,1.8-1.9c0-0.1,0-0.2,0-0.2v-0.1c0,0,0,0.4,0-0.1s0.5-1,1-1c0,0,0,0,0,0c0.1,0,0.1,0,0.2,0c0.1,0,0.1,0,0.2,0    c0.1,0,0.1,0,0.2,0c0.1,0,0.1,0,0.2,0c0.1,0,0.1,0,0.2,0h0.2C258.1,23.1,259,22.2,259,21L259,21L259,21z"/>
		<path class="st1" d="M239.4,20.8c0.6,0,1.1-0.5,1.1-1.1c0-0.6-0.5-1.1-1.1-1.1c-0.6,0-1.1,0.5-1.1,1.1    C238.3,20.3,238.8,20.8,239.4,20.8z"/>
		<path class="st1" d="M243.4,17.7c0.7,0,1.3-0.6,1.3-1.3c0-0.7-0.6-1.3-1.3-1.3s-1.3,0.6-1.3,1.3C242.1,17.1,242.6,17.7,243.4,17.7    z"/>
		<path class="st1" d="M247.3,14.7c0.9,0,1.7-0.7,1.7-1.7c0-0.9-0.7-1.7-1.7-1.7c-0.9,0-1.7,0.7-1.7,1.7    C245.7,13.9,246.4,14.7,247.3,14.7z"/>
		<path class="st1" d="M249.5,9.6c0,1,0.8,1.9,1.8,1.9c1,0,1.9-0.8,1.9-1.9c0-0.1,0-0.2,0-0.2V9.3c0,0,0,0.4,0-0.1c0-0.6,0.5-1,1-1    c0,0,0,0,0,0s0.1,0,0.2,0c0.1,0,0.1,0,0.2,0s0.1,0,0.2,0s0.1,0,0.2,0c0.1,0,0.1,0,0.2,0h0.2c1.2,0,2.1-0.9,2.1-2.1h0    c0-1.2-0.9-2.1-2.1-2.1c-1.2,0-2.1,0.9-2.1,2.1c0,0.1,0,0.3,0,0.4c0,0.1,0-0.4,0,0.2s-0.5,1-1,1h-0.1c0,0-0.1,0-0.1,0    c0,0-0.1,0-0.1,0c0,0-0.1,0-0.1,0c0,0-0.1,0-0.1,0h-0.1C250.4,7.7,249.5,8.6,249.5,9.6L249.5,9.6z"/>
		<path class="st2" d="M14.7,24.3c-0.6-0.5-1.3-0.8-2.1-0.9c-0.8-0.1-1.9-0.2-3.1-0.2l-4.2,0.1c-1.9,0-3.3,0.5-4.1,1.4    C0.4,25.6,0,27,0,29c0,2.2,0.4,3.8,1.1,4.9c0.7,1,2.1,1.6,4.2,1.6l4.3,0.2c2.1,0,3.8-0.2,4.9-0.7s1.7-1.6,1.7-3.4h-4.4    c0,0.4-0.1,0.8-0.2,0.9c-0.1,0.2-0.4,0.3-0.8,0.4c-0.4,0.1-0.8,0.1-1.4,0.1l-2.5-0.1c-0.9,0-1.6-0.2-1.9-0.6c-0.3-0.4-0.5-1-0.5-2    h11.7c0-0.3,0-0.6,0-0.9c0-0.3,0-0.5,0-0.7c0-0.9-0.1-1.8-0.3-2.5C15.7,25.4,15.3,24.8,14.7,24.3z M4.5,27.9l0-0.3    c0-0.8,0.3-1.3,0.8-1.5c0.5-0.2,1.3-0.3,2.2-0.3h1.7c1,0,1.6,0.1,2.1,0.4c0.4,0.3,0.6,0.8,0.6,1.7H4.5z"/>
		<path class="st2" d="M33.4,24.3c-1-0.8-2.7-1.2-5.1-1.2c-1.3,0-2.4,0.2-3.3,0.5c-0.9,0.4-1.5,1.1-1.8,2.2v-2.5h-4.4v12h4.4v-5.6    c0-1.3,0.3-2.2,0.9-2.6c0.6-0.4,1.6-0.6,2.9-0.6h0.5c1.2,0,2,0.2,2.4,0.5c0.4,0.3,0.7,1,0.7,2v6.3H35v-6.3    C35,26.7,34.5,25.1,33.4,24.3z"/>
		<path class="st2" d="M52.3,24.3c-0.6-0.5-1.3-0.8-2.1-0.9c-0.8-0.1-1.9-0.2-3.1-0.2l-4.2,0.1c-1.9,0-3.3,0.5-4.1,1.4    c-0.8,0.9-1.2,2.4-1.2,4.4c0,2.2,0.4,3.8,1.1,4.9c0.7,1,2.1,1.6,4.2,1.6l4.3,0.2c2.1,0,3.8-0.2,4.9-0.7s1.7-1.6,1.7-3.4h-4.4    c0,0.4-0.1,0.8-0.2,0.9c-0.1,0.2-0.4,0.3-0.8,0.4c-0.4,0.1-0.8,0.1-1.4,0.1l-2.5-0.1c-0.9,0-1.6-0.2-1.9-0.6c-0.3-0.4-0.5-1-0.5-2    h11.7c0-0.3,0-0.6,0-0.9c0-0.3,0-0.5,0-0.7c0-0.9-0.1-1.8-0.3-2.5C53.3,25.4,52.9,24.8,52.3,24.3z M42,27.9l0-0.3    c0-0.8,0.3-1.3,0.8-1.5c0.5-0.2,1.3-0.3,2.2-0.3h1.7c1,0,1.6,0.1,2.1,0.4c0.4,0.3,0.6,0.8,0.6,1.7H42z"/>
		<path class="st2" d="M65.4,23.2c-1.2,0-2.2,0.2-3,0.6c-0.8,0.4-1.3,1.1-1.7,2.1v-2.4h-4.4v12h4.4v-5.5c0-1.2,0.2-2,0.6-2.6    c0.4-0.6,1.1-0.9,2.2-0.9c0.9,0,1.6,0.1,1.9,0.3c0.3,0.2,0.6,0.7,0.6,1.5c0,0.1,0,0.2,0,0.3h4.1v-0.8c0-1.8-0.3-3-1-3.7    S67.2,23.2,65.4,23.2z"/>
		<path class="st2" d="M84.7,25.6c-0.4-1.1-0.9-1.8-1.6-2c-0.6-0.3-1.6-0.4-2.9-0.4c-0.4,0-1.1,0-2,0c-0.9,0-2,0.1-3.1,0.3    c-1.1,0.2-1.9,0.7-2.4,1.7C72.2,26.1,72,27.4,72,29c0,2.7,0.5,4.5,1.6,5.2c1.1,0.7,3,1.1,5.9,1.1c1.7,0,2.9-0.2,3.6-0.6    c0.7-0.4,1.2-1,1.6-1.8v2.3c0,0.4,0,0.7-0.1,1c0,0.3-0.2,0.6-0.4,0.9s-0.7,0.5-1.3,0.7c-0.7,0.1-1.4,0.2-2.2,0.2h-0.5    c-0.2,0-0.6,0-1.2-0.1c-0.7,0-1.1-0.2-1.5-0.4C77.2,37.3,77,37,77,36.6h-4.5c0,1.9,0.7,3.1,2,3.6c1.3,0.5,3.2,0.8,5.5,0.8    c0.7,0,1.4,0,2.2-0.1c0.7,0,1.4-0.1,1.9-0.2c1.5,0,2.7-0.4,3.7-1.3c1-0.9,1.4-2.1,1.4-3.6V23.4h-4.5L84.7,25.6L84.7,25.6z     M84.7,29.5c0,0.4,0,0.8-0.1,1.2c-0.1,0.3-0.3,0.6-0.6,0.8c-0.3,0.2-0.7,0.3-1.1,0.4C82.5,32,81.8,32,81,32h-0.4    c-0.3,0-0.5,0-0.7,0c-0.2,0-0.7-0.1-1.5-0.1c-0.8-0.1-1.3-0.3-1.5-0.7c-0.2-0.4-0.4-1.1-0.4-2v-0.4c0-0.3,0-0.6,0.1-1    c0.1-0.3,0.2-0.6,0.5-0.8s0.6-0.3,0.9-0.4c0.4-0.1,0.9-0.1,1.5-0.1h0.8l2.3,0.1c0.9,0,1.5,0.2,1.7,0.6c0.3,0.4,0.4,1,0.4,1.9V29.5    z"/>
		<path class="st2" d="M96.5,18.3h-4.4v3.2h4.4V18.3z"/>
		<path class="st2" d="M96.5,23.4h-4.4v12h4.4V23.4z"/>
		<path class="st2" d="M113.9,24.3c-0.6-0.5-1.3-0.8-2.1-0.9c-0.8-0.1-1.9-0.2-3.1-0.2l-4.2,0.1c-1.9,0-3.3,0.5-4.1,1.4    c-0.8,0.9-1.2,2.4-1.2,4.4c0,2.2,0.4,3.8,1.1,4.9c0.7,1,2.1,1.6,4.2,1.6l4.3,0.2c2.1,0,3.8-0.2,4.9-0.7c1.1-0.5,1.7-1.6,1.7-3.4    h-4.4c0,0.4-0.1,0.8-0.2,0.9c-0.1,0.2-0.4,0.3-0.8,0.4c-0.4,0.1-0.8,0.1-1.4,0.1l-2.5-0.1c-0.9,0-1.6-0.2-1.9-0.6    c-0.3-0.4-0.5-1-0.5-2h11.7c0-0.3,0-0.6,0-0.9c0-0.3,0-0.5,0-0.7c0-0.9-0.1-1.8-0.3-2.5C114.8,25.4,114.5,24.8,113.9,24.3z     M103.6,27.9l0-0.3c0-0.8,0.3-1.3,0.8-1.5c0.5-0.2,1.3-0.3,2.2-0.3h1.7c1,0,1.6,0.1,2.1,0.4c0.4,0.3,0.6,0.8,0.6,1.7H103.6z"/>
		<path class="st1" d="M129.5,23.1c0-0.5,0-0.9,0.1-1.2c0.1-0.2,0.2-0.4,0.4-0.6c0.2-0.2,0.4-0.3,0.7-0.4c0.3-0.1,0.7-0.1,1.3-0.1    l1.7,0.1V18c-0.1,0-0.5,0-1.2-0.1c-0.7,0-1.2-0.1-1.6-0.1c-2.2,0-3.7,0.4-4.5,1.1c-0.8,0.8-1.3,2.2-1.3,4.4h-2.3v2.9h2.3v9h4.4v-9    h4.5v-2.9h-4.5L129.5,23.1z"/>
		<path class="st1" d="M140.2,18.3h-4.4v3.2h4.4V18.3z"/>
		<path class="st1" d="M140.2,23.4h-4.4v12h4.4V23.4z"/>
		<path class="st1" d="M149.2,20.5h-4.5v2.9h-2.3v2.9h2.3v5.1c0,1.4,0.4,2.5,1.2,3.1c0.8,0.7,2.6,1,5.2,1c2.2,0,3.6-0.4,4.3-1.1    c0.7-0.8,1-2.2,1-4.3h-3.4v0.5c0,0.6-0.1,1.1-0.4,1.3c-0.3,0.2-0.8,0.3-1.4,0.3c-0.7,0-1.2-0.2-1.5-0.5c-0.2-0.3-0.4-0.9-0.4-1.7    v-3.8h7.2v-2.9h-7.2V20.5z"/>
		<path class="st1" d="M173.7,24.3c-1-0.8-2.7-1.2-5.1-1.2c-1.3,0-2.4,0.2-3.3,0.5c-0.9,0.4-1.5,1.1-1.8,2.2v-2.5H159v12h4.4v-5.6    c0-1.3,0.3-2.2,0.9-2.6c0.6-0.4,1.6-0.6,2.9-0.6h0.5c1.2,0,2,0.2,2.4,0.5c0.4,0.3,0.7,1,0.7,2v6.3h4.4v-6.3    C175.2,26.7,174.7,25.1,173.7,24.3z"/>
		<path class="st1" d="M192.5,24.3c-0.6-0.5-1.3-0.8-2.1-0.9c-0.8-0.1-1.9-0.2-3.1-0.2l-4.2,0.1c-1.9,0-3.3,0.5-4.1,1.4    c-0.8,0.9-1.2,2.4-1.2,4.4c0,2.2,0.4,3.8,1.1,4.9c0.7,1,2.1,1.6,4.2,1.6l4.3,0.2c2.1,0,3.8-0.2,4.9-0.7c1.1-0.5,1.7-1.6,1.7-3.4    h-4.4c0,0.4-0.1,0.8-0.2,0.9c-0.1,0.2-0.4,0.3-0.8,0.4c-0.4,0.1-0.8,0.1-1.4,0.1l-2.5-0.1c-0.9,0-1.6-0.2-1.9-0.6    c-0.3-0.4-0.5-1-0.5-2H194c0-0.3,0-0.6,0-0.9c0-0.3,0-0.5,0-0.7c0-0.9-0.1-1.8-0.3-2.5C193.5,25.4,193.1,24.8,192.5,24.3z     M182.3,27.9l0-0.3c0-0.8,0.3-1.3,0.8-1.5c0.5-0.2,1.3-0.3,2.2-0.3h1.7c1,0,1.6,0.1,2.1,0.4c0.4,0.3,0.6,0.8,0.6,1.7H182.3z"/>
		<path class="st1" d="M211.4,28.3c-1-0.4-2.4-0.6-4.3-0.6l-4.9,0c-0.4,0-0.8-0.1-1.1-0.2s-0.4-0.3-0.4-0.7c0-0.3,0.1-0.5,0.3-0.6    c0.2-0.2,0.4-0.3,0.7-0.3c0.3,0,0.5-0.1,0.8-0.1c0.3,0,0.5,0,0.8,0h1.9c0.4,0,0.7,0,0.9,0c0.3,0,0.5,0.1,0.7,0.1    c0.4,0.1,0.6,0.3,0.7,0.7h4.6c0-1-0.2-1.7-0.6-2.2c-0.4-0.5-1.1-0.8-1.9-1c-0.9-0.1-1.5-0.2-2-0.3c-0.5,0-1.2,0-2.2,0l-4.3,0.1    c-1.6,0.1-2.8,0.5-3.6,0.9c-0.8,0.5-1.3,1.4-1.3,2.8c0,2.2,1.2,3.4,3.5,3.6l3.8,0.1h3.3c0.5,0,0.8,0.1,1.1,0.2    c0.3,0.1,0.4,0.4,0.4,0.7c0,0.5-0.2,0.8-0.5,0.9c-0.3,0.1-0.7,0.2-1,0.2c-0.4,0-0.8,0.1-1.3,0.1l-2.1,0c-0.4,0-0.8,0-1.1,0    c-0.3,0-0.6-0.1-1.1-0.2c-0.4-0.1-0.6-0.4-0.6-1h-4.6c0,1.7,0.6,2.8,1.7,3.3c1.1,0.4,2.8,0.7,4.9,0.7h1.9c1.2,0,2.4,0,3.5-0.1    c1.1-0.1,2-0.3,2.8-0.6c0.8-0.3,1.3-0.7,1.6-1.3c0.3-0.6,0.4-1.3,0.4-2.4C212.8,29.7,212.4,28.7,211.4,28.3L211.4,28.3z"/>
		<path class="st1" d="M230.3,28.3c-1-0.4-2.4-0.6-4.3-0.6l-4.9,0c-0.4,0-0.8-0.1-1.1-0.2s-0.4-0.3-0.4-0.7c0-0.3,0.1-0.5,0.3-0.6    c0.2-0.2,0.4-0.3,0.7-0.3c0.3,0,0.5-0.1,0.8-0.1c0.3,0,0.5,0,0.8,0h1.9c0.4,0,0.7,0,0.9,0c0.3,0,0.5,0.1,0.7,0.1    c0.4,0.1,0.6,0.3,0.7,0.7h4.6c0-1-0.2-1.7-0.6-2.2s-1.1-0.8-1.9-1c-0.9-0.1-1.5-0.2-2-0.3c-0.5,0-1.2,0-2.2,0l-4.3,0.1    c-1.6,0.1-2.8,0.5-3.6,0.9c-0.8,0.5-1.3,1.4-1.3,2.8c0,2.2,1.2,3.4,3.5,3.6l3.8,0.1h3.3c0.5,0,0.8,0.1,1.1,0.2    c0.3,0.1,0.4,0.4,0.4,0.7c0,0.5-0.2,0.8-0.5,0.9c-0.3,0.1-0.7,0.2-1,0.2c-0.4,0-0.8,0.1-1.3,0.1l-2.1,0c-0.4,0-0.8,0-1.1,0    c-0.3,0-0.6-0.1-1.1-0.2c-0.4-0.1-0.6-0.4-0.6-1h-4.6c0,1.7,0.6,2.8,1.7,3.3c1.1,0.4,2.8,0.7,4.9,0.7h1.9c1.2,0,2.4,0,3.5-0.1    c1.1-0.1,2-0.3,2.8-0.6c0.8-0.3,1.3-0.7,1.6-1.3c0.3-0.6,0.4-1.3,0.4-2.4C231.7,29.7,231.2,28.7,230.3,28.3z"/>
	</g>
</g>
</svg>