<svg xmlns="http://www.w3.org/2000/svg" xmlns:xlink="http://www.w3.org/1999/xlink" width="97" height="42" viewBox="0 0 97 42" version="1.1">
    <!-- Generator: Sketch 59 (86127) - https://sketch.com -->
    <title>logo/stacked/lt copy</title>
    <desc>Created with Sketch.</desc>
    <g id="Atoms" stroke="none" stroke-width="1" fill="none" fill-rule="evenodd">
        <g id="Atoms/Logos/EA_vertical/colour">
            <g id="logo/stacked/lt-copy">
                <g id="ea-logo-portrait_trimmed">
                    <path d="M51.0527275,39.0186207 L48.6896312,39.0186207 L49.8055378,35.9234483 L51.0527275,39.0186207 Z M50.8995639,34.0344828 L48.6896312,34.0344828 L45.6044776,42 L47.6174856,42 L48.1863792,40.4296552 L51.5997406,40.4296552 L52.2342757,42 L54.2910448,42 L50.8995639,34.0344828 Z" id="Shape" fill="#1B2326"/>
                    <g id="Group">
                        <path d="M63.9152582,39.3978261 C62.7767606,39.9456522 62.070892,40.2652174 61.0234742,40.2652174 C59.3612676,40.2652174 58.17723,39.2608696 58.17723,37.8228261 C58.17723,36.4076087 59.3840376,35.4032609 61.0690141,35.4032609 C62.0481221,35.4032609 62.9361502,35.7228261 63.8014085,36.225 L63.8014085,34.4445652 C63.02723,33.9652174 62.0253521,33.7369565 60.9096244,33.7369565 C57.8584507,33.7369565 56.1279343,35.7228261 56.1279343,37.8684783 C56.1279343,39.9228261 57.6762911,41.9543478 60.7730047,41.9543478 C61.9570423,41.9543478 62.7995305,41.726087 63.9152582,41.1554348 L63.9152582,39.3978261 L63.9152582,39.3978261 Z" id="Shape" fill="#1B2326"/>
                        <polygon id="Shape" fill="#1B2326" points="73.8429577 33.851087 66.1011737 33.851087 66.1011737 35.3119565 68.9929577 35.3119565 68.9929577 41.8402174 70.9739437 41.8402174 70.9739437 35.3119565 73.8429577 35.3119565"/>
                        <polygon id="Rectangle-path" fill="#1B2326" points="76.3021127 33.851087 78.2830986 33.851087 78.2830986 41.8402174 76.3021127 41.8402174"/>
                        <polygon id="Shape" fill="#1B2326" points="88.8028169 33.851087 86.6624413 33.851087 84.6586854 38.3934783 82.5638498 33.851087 80.4007042 33.851087 84.2488263 41.9315217 85.1140845 41.9315217"/>
                        <polygon id="Shape" fill="#1B2326" points="96.7495305 40.3565217 92.8558685 40.3565217 92.8558685 38.4391304 96.499061 38.4391304 96.499061 36.9782609 92.8558685 36.9782609 92.8558685 35.3119565 96.6584507 35.3119565 96.6584507 33.851087 90.8748826 33.851087 90.8748826 41.8402174 96.7495305 41.8402174"/>
                        <path d="M70.1086854,2.89891304 C70.1086854,1.30108696 71.4065728,0 73.0004695,0 C74.5943662,0 75.8922535,1.30108696 75.8922535,2.89891304 C75.8922535,4.49673913 74.5943662,5.79782609 73.0004695,5.79782609 C71.4065728,5.79782609 70.1086854,4.49673913 70.1086854,2.89891304" id="Shape" fill="#E2231A" fill-rule="nonzero"/>
                        <path d="M68.4920188,3.28695652 L68.6058685,3.26413043 L68.9246479,4.70217391 C62.2530516,6.20869565 57.2892019,11.4815217 56.1962441,18.2608696 L54.7389671,18.0326087 C55.9230047,10.751087 61.2967136,4.9076087 68.4920188,3.28695652" id="Shape" fill="#1B2326"/>
                        <path d="M8.81197183,18.9684783 C8.81197183,17.9413043 8.53873239,17.1423913 8.03779343,16.5717391 C7.53685446,16.001087 6.7399061,15.7271739 5.71525822,15.7271739 C4.66784038,15.7271739 3.82535211,16.0467391 3.21056338,16.6630435 C2.59577465,17.2793478 2.2314554,18.0554348 2.16314554,18.9684783 L8.81197183,18.9684783 L8.81197183,18.9684783 Z M10.7474178,20.475 L2.14037559,20.475 C2.14037559,21.1826087 2.2314554,21.8217391 2.45915493,22.3467391 C2.66408451,22.8717391 2.9600939,23.3054348 3.3471831,23.6706522 C3.71150235,24.0130435 4.14413146,24.2641304 4.64507042,24.423913 C5.14600939,24.5836957 5.69248826,24.675 6.28450704,24.675 C7.0814554,24.675 7.87840376,24.5152174 8.67535211,24.1956522 C9.47230047,23.876087 10.0643192,23.5565217 10.4058685,23.2597826 L10.5197183,23.2597826 L10.5197183,25.4054348 C9.85938967,25.6793478 9.17629108,25.9304348 8.49319249,26.1130435 C7.8100939,26.2956522 7.0814554,26.4097826 6.33004695,26.4097826 C4.39460094,26.4097826 2.86901408,25.8847826 1.79882629,24.8347826 C0.683098592,23.7619565 0.136619718,22.2554348 0.136619718,20.3380435 C0.136619718,18.4206522 0.660328638,16.8913043 1.70774648,15.7728261 C2.75516432,14.6543478 4.1213615,14.0836957 5.82910798,14.0836957 C7.40023474,14.0836957 8.60704225,14.5630435 9.47230047,15.476087 C10.3375587,16.3891304 10.7701878,17.7130435 10.7701878,19.4021739 L10.7474178,20.475 L10.7474178,20.475 Z" id="Shape" fill="#1B2326"/>
                        <polygon id="Shape" fill="#1B2326" points="23.7946009 14.426087 19.0812207 26.1130435 17.1002347 26.1130435 12.4096244 14.426087 14.55 14.426087 18.1704225 23.7163043 21.7453052 14.426087"/>
                        <path d="M34.0410798,18.9684783 C34.0410798,17.9413043 33.7678404,17.1423913 33.2669014,16.5717391 C32.7659624,16.001087 31.9690141,15.7271739 30.9443662,15.7271739 C29.8969484,15.7271739 29.0544601,16.0467391 28.4169014,16.6630435 C27.8021127,17.2793478 27.4377934,18.0554348 27.3694836,18.9684783 L34.0410798,18.9684783 L34.0410798,18.9684783 Z M35.9537559,20.475 L27.3467136,20.475 C27.3467136,21.1826087 27.4605634,21.8217391 27.665493,22.3467391 C27.8704225,22.8717391 28.1892019,23.3054348 28.5535211,23.6706522 C28.9178404,24.0130435 29.3504695,24.2641304 29.8514085,24.423913 C30.3523474,24.5836957 30.8988263,24.675 31.4908451,24.675 C32.2877934,24.675 33.0847418,24.5152174 33.8816901,24.1956522 C34.6786385,23.876087 35.2706573,23.5565217 35.6122066,23.2597826 L35.7260563,23.2597826 L35.7260563,25.4054348 C35.0657277,25.6793478 34.3826291,25.9304348 33.6995305,26.1130435 C33.0164319,26.2956522 32.2877934,26.4097826 31.536385,26.4097826 C29.600939,26.4097826 28.0981221,25.8847826 27.0051643,24.8347826 C25.9122066,23.7847826 25.3657277,22.2782609 25.3657277,20.3608696 C25.3657277,18.4434783 25.8894366,16.9141304 26.9140845,15.7956522 C27.9615023,14.6771739 29.3276995,14.1065217 31.035446,14.1065217 C32.6065728,14.1065217 33.8133803,14.5858696 34.6786385,15.498913 C35.5438967,16.4119565 35.9765258,17.7358696 35.9765258,19.425 L35.9765258,20.475 L35.9537559,20.475 L35.9537559,20.475 Z" id="Shape" fill="#1B2326"/>
                        <path d="M46.2002347,16.548913 L46.086385,16.548913 C45.7903756,16.4804348 45.5171362,16.4347826 45.2211268,16.4119565 C44.9478873,16.3663043 44.629108,16.3434783 44.2420188,16.3434783 C43.62723,16.3434783 43.0579812,16.4804348 42.4887324,16.7543478 C41.9194836,17.0054348 41.3730047,17.3706522 40.8492958,17.7815217 L40.8492958,26.0902174 L38.9366197,26.0902174 L38.9366197,14.426087 L40.8948357,14.426087 L40.8948357,16.1380435 C41.6690141,15.5217391 42.3521127,15.0652174 42.9441315,14.8141304 C43.5361502,14.5402174 44.150939,14.426087 44.7657277,14.426087 C45.107277,14.426087 45.3577465,14.426087 45.5171362,14.448913 C45.6765258,14.448913 45.9042254,14.4945652 46.2002347,14.5402174 L46.2002347,16.548913 L46.2002347,16.548913 Z" id="Shape" fill="#1B2326"/>
                        <polygon id="Shape" fill="#1B2326" points="53.4183099 24.9945652 51.5967136 30.4271739 49.5018779 30.4271739 51.414554 25.5423913 46.7694836 14.426087 48.8870892 14.426087 52.4619718 23.0771739"/>
                        <path d="M68.4464789,20.2695652 C68.4464789,18.7630435 68.1504695,17.6217391 67.5584507,16.8913043 C66.9664319,16.1608696 66.1467136,15.7956522 65.0992958,15.7956522 C64.029108,15.7956522 63.2093897,16.1608696 62.6173709,16.8913043 C62.0253521,17.6217391 61.7293427,18.7630435 61.7293427,20.2695652 C61.7293427,21.7304348 62.0253521,22.848913 62.6173709,23.6021739 C63.2093897,24.3554348 64.029108,24.7206522 65.0992958,24.7206522 C66.1467136,24.7206522 66.9664319,24.3554348 67.5584507,23.6021739 C68.1504695,22.8717391 68.4464789,21.7532609 68.4464789,20.2695652 M70.4730047,20.2695652 C70.4730047,22.1641304 69.9948357,23.6706522 69.0157277,24.7891304 C68.0366197,25.8847826 66.7387324,26.4326087 65.0992958,26.4326087 C63.4598592,26.4326087 62.1392019,25.8847826 61.1600939,24.7891304 C60.2037559,23.6934783 59.7028169,22.1869565 59.7028169,20.2695652 C59.7028169,18.3521739 60.1809859,16.8684783 61.1600939,15.75 C62.1392019,14.6315217 63.4598592,14.0836957 65.0992958,14.0836957 C66.7387324,14.0836957 68.0366197,14.6543478 69.0157277,15.75 C69.9720657,16.8684783 70.4730047,18.375 70.4730047,20.2695652" id="Shape" fill="#1B2326"/>
                        <path d="M83.2697183,26.1130435 L81.3115023,26.1130435 L81.3115023,19.4478261 C81.3115023,18.9 81.2887324,18.3978261 81.2204225,17.9413043 C81.1521127,17.4619565 81.0382629,17.0967391 80.8788732,16.8228261 C80.6967136,16.526087 80.4462441,16.3206522 80.1274648,16.1836957 C79.8086854,16.023913 79.3760563,15.9554348 78.8523474,15.9554348 C78.3058685,15.9554348 77.7593897,16.0923913 77.1673709,16.3434783 C76.5753521,16.6173913 76.0288732,16.9369565 75.4823944,17.3706522 L75.4823944,26.1130435 L73.5241784,26.1130435 L73.5241784,14.426087 L75.4823944,14.426087 L75.4823944,15.7271739 C76.0971831,15.225 76.7347418,14.8141304 77.3723005,14.5402174 C78.0326291,14.2434783 78.6929577,14.1065217 79.3760563,14.1065217 C80.6511737,14.1065217 81.6075117,14.4945652 82.2678404,15.2478261 C82.928169,16.001087 83.2469484,17.1195652 83.2469484,18.5347826 L83.2469484,26.1130435 L83.2697183,26.1130435 L83.2697183,26.1130435 Z" id="Shape" fill="#1B2326"/>
                        <path d="M94.9051643,18.9684783 C94.9051643,17.9413043 94.6319249,17.1423913 94.1309859,16.5717391 C93.6300469,16.001087 92.8330986,15.7271739 91.8084507,15.7271739 C90.7610329,15.7271739 89.9185446,16.0467391 89.2809859,16.6630435 C88.6661972,17.2793478 88.3018779,18.0554348 88.2335681,18.9684783 L94.9051643,18.9684783 L94.9051643,18.9684783 Z M96.8178404,20.475 L88.2107981,20.475 C88.2107981,21.1826087 88.3246479,21.8217391 88.5295775,22.3467391 C88.757277,22.8717391 89.0305164,23.3054348 89.4176056,23.6706522 C89.7819249,24.0130435 90.214554,24.2641304 90.692723,24.423913 C91.193662,24.5836957 91.7401408,24.675 92.3321596,24.675 C93.129108,24.675 93.9260563,24.5152174 94.7230047,24.1956522 C95.5199531,23.876087 96.1119718,23.5565217 96.4535211,23.2597826 L96.5673709,23.2597826 L96.5673709,25.4054348 C95.9070423,25.6793478 95.2239437,25.9304348 94.5408451,26.1130435 C93.8577465,26.2956522 93.129108,26.4097826 92.3776995,26.4097826 C90.4422535,26.4097826 88.9166667,25.8847826 87.8464789,24.8347826 C86.7535211,23.7847826 86.2070423,22.2782609 86.2070423,20.3608696 C86.2070423,18.4434783 86.7307512,16.9141304 87.7553991,15.7956522 C88.8028169,14.6771739 90.1690141,14.1065217 91.8767606,14.1065217 C93.4478873,14.1065217 94.6546948,14.5858696 95.5199531,15.498913 C96.3852113,16.4119565 96.7950704,17.7358696 96.7950704,19.425 L96.8178404,20.475 L96.8178404,20.475 Z" id="Shape" fill="#1B2326"/>
                    </g>
                </g>
            </g>
        </g>
    </g>
</svg>