<?xml version="1.0" encoding="UTF-8" standalone="no"?>
<svg
   xmlns:dc="http://purl.org/dc/elements/1.1/"
   xmlns:cc="http://creativecommons.org/ns#"
   xmlns:rdf="http://www.w3.org/1999/02/22-rdf-syntax-ns#"
   xmlns:svg="http://www.w3.org/2000/svg"
   xmlns="http://www.w3.org/2000/svg"
   width="500"
   height="110"
   viewBox="0 0 500 110"
   version="1.1"
   xml:space="preserve"
   style="clip-rule:evenodd;fill-rule:evenodd;stroke-linejoin:round;stroke-miterlimit:2"
   id="svg67"><metadata
   id="metadata73"><rdf:RDF><cc:Work
       rdf:about=""><dc:format>image/svg+xml</dc:format><dc:type
         rdf:resource="http://purl.org/dc/dcmitype/StillImage" /><dc:title></dc:title></cc:Work></rdf:RDF></metadata><defs
   id="defs71" />
    
<path
   d="M 70.940137,43.018449 H 89.425456 L 85.868143,66.843 H 67.384453 Z M 76.201179,7.6472886 H 111.30766 L 107.58258,32.748007 H 72.48587 Z m -50.299168,0 H 69.931088 L 59.20377,79.822956 H 76.731356 L 72.958224,104.92449 H 11.404005 L 15.120944,79.822956 H 32.706349 L 39.716732,32.748007 H 22.187518 Z"
   style="fill:#d60d2c;fill-opacity:1;stroke-width:0.814405"
   id="path42" /><path
   d="M 70.940137,43.018449 H 89.425456 L 85.868143,66.843 H 67.384453 Z M 76.201179,7.6472886 H 111.30766 L 107.58258,32.748007 H 72.48587 Z m -50.299168,0 H 69.931088 L 59.20377,79.822956 H 76.731356 L 72.958224,104.92449 H 11.404005 L 15.120944,79.822956 H 32.706349 L 39.716732,32.748007 H 22.187518 Z"
   style="fill:#d60d2c;fill-opacity:1;fill-rule:nonzero;stroke-width:0.814405"
   id="path46" /><path
   d="M 4.4506288,7.7018531 H 10.712578 L 10.450341,9.0855269 H 8.1097444 L 6.8922132,16.051927 H 5.3489192 L 6.5745966,9.0855269 H 4.234 Z"
   style="fill:#d60d2c;fill-opacity:1;stroke-width:0.814405"
   id="path50" /><path
   d="M 4.4506288,7.7018531 H 10.712578 L 10.450341,9.0855269 H 8.1097444 L 6.8922132,16.051927 H 5.3489192 L 6.5745966,9.0855269 H 4.234 Z"
   style="fill:#d60d2c;fill-opacity:1;fill-rule:nonzero;stroke-width:0.814405"
   id="path54" /><path
   d="m 12.153255,7.7018531 h 1.63858 l 1.122251,5.6315989 3.127304,-5.6315989 h 1.757484 l -1.066869,8.3500739 h -1.59053 l 0.738665,-5.379132 -2.3862,4.318783 h -1.702105 l -0.797298,-4.318783 -1.215092,5.379132 h -1.545738 z"
   style="fill:#d60d2c;fill-opacity:1;stroke-width:0.814405"
   id="path58" /><path
   d="m 12.153255,7.7018531 h 1.63858 l 1.122251,5.6315989 3.127304,-5.6315989 h 1.757484 l -1.066869,8.3500739 h -1.59053 l 0.738665,-5.379132 -2.3862,4.318783 h -1.702105 l -0.797298,-4.318783 -1.215092,5.379132 h -1.545738 z"
   style="fill:#d60d2c;fill-opacity:1;fill-rule:nonzero;stroke-width:0.814405"
   id="path62" /><path
   d="m 148.16402,24.382501 h 29.74207 l -1.29486,8.342829 h -20.32985 l -1.40761,9.634384 h 28.98106 l -5.50772,37.3471 h -9.41554 L 173.355,50.145467 h -19.66667 l -5.61715,38.002001 h -9.41553 z"
   id="path2"
   style="fill:#3e3d40;fill-opacity:1;stroke-width:1.65795" /><path
   d="m 375.97208,24.382501 h 29.74538 l -1.2932,8.342829 h -20.24364 l -1.50377,9.634384 h 28.98604 l -5.52928,37.3471 h -9.39066 l 4.41513,-29.561347 h -19.65672 l -5.6271,38.002001 h -9.41221 z"
   id="path6"
   style="fill:#3e3d40;fill-opacity:1;stroke-width:1.65795" /><path
   d="m 203.63093,31.301153 -1.71433,11.058561 h 9.71893 l -1.18543,7.785753 h -9.62112 l -3.14348,20.910136 v 0.843903 l 0.22714,0.560384 0.6466,0.424444 0.85716,0.11605 1.50874,-0.230452 1.63806,-0.310042 1.71599,-0.560384 1.6165,-0.633336 2.1769,6.280332 -2.50019,1.177149 -2.91138,0.983163 -3.03406,0.53718 -3.35238,0.213876 -2.26808,-0.213876 -2.05421,-0.65655 -1.5104,-0.961613 -1.18047,-1.405947 -0.75934,-1.618163 -0.3233,-1.966336 0.11274,-2.160317 5.71498,-38.749738 z"
   id="path10"
   style="fill:#3e3d40;fill-opacity:1;stroke-width:1.65795" /><path
   d="m 487.11313,31.301153 -1.7193,11.058561 h 9.72225 l -1.17715,7.785753 h -9.62941 l -3.14182,20.910136 v 0.848877 l 0.22713,0.55541 0.64993,0.424444 0.85385,0.11605 1.5336,-0.230452 1.61319,-0.310042 1.61817,-0.55541 1.7309,-0.63831 2.16032,6.280332 -2.48196,1.177149 -2.93127,0.983163 -3.01084,0.542159 -3.35405,0.208897 -2.38082,-0.208897 -1.93815,-0.656555 -1.53361,-0.966587 -1.17549,-1.405947 -0.76929,-1.618163 -0.31998,-1.966336 v -2.160317 l 5.82771,-38.749738 z"
   id="path14"
   style="fill:#3e3d40;fill-opacity:1;stroke-width:1.65795" /><path
   d="m 242.55309,41.494256 2.06249,0.210567 1.61817,0.540489 1.29486,0.865453 0.97488,1.198704 0.75935,1.402627 0.43769,1.503767 0.0962,1.735884 v 2.505166 l -0.20558,1.175489 -4.1167,27.074412 h -9.29947 l 3.90779,-26.747794 0.0962,-0.326618 v -0.424433 l -0.0962,-0.65655 -0.32661,-0.53718 -0.64329,-0.429412 -1.0014,-0.112742 -1.49382,0.112742 -1.74417,0.542153 -1.93815,0.754371 -2.0625,0.863793 -2.05421,0.983173 -1.82706,1.079324 -3.68066,24.899173 h -9.41056 l 5.52928,-36.808266 7.99798,-1.193725 v 4.549422 l 3.02908,-1.618158 3.12359,-1.197045 3.14514,-1.079328 3.03075,-0.654891 z"
   id="path18"
   style="fill:#3e3d40;fill-opacity:1;stroke-width:1.65795" /><path
   d="m 306.55846,41.494256 2.81521,0.09616 3.03737,0.441019 2.91303,0.639969 2.5947,0.653236 -1.30149,7.034702 -2.47036,-0.542148 -2.6146,-0.424434 -2.5864,-0.328272 -2.16032,-0.112742 h -1.94644 l -1.40098,0.232112 -0.97155,0.422779 -0.55874,0.865447 -0.3233,1.289896 -0.0928,1.197039 0.0928,0.865458 0.55045,0.752706 0.86545,0.772606 1.2932,0.747742 1.73091,0.983168 2.70578,1.407606 2.15203,1.289886 1.73588,1.19373 1.40926,1.084303 0.85385,1.193725 0.65157,1.19207 0.22715,1.294865 0.0962,1.618163 -0.20559,1.84862 -0.4377,2.486935 -0.64991,2.273059 -0.85716,1.846956 -1.08762,1.503772 -1.50874,1.19373 -1.84531,0.870422 -2.15368,0.65489 -2.81687,0.328283 -3.24296,0.09615 -2.26477,-0.09615 -2.49522,-0.328283 -2.59636,-0.540494 -2.47201,-0.656545 -2.06249,-0.747737 1.50542,-7.033053 3.24296,0.961618 3.5845,0.752711 3.77185,0.230452 1.84365,-0.11605 1.29486,-0.215536 0.97156,-0.323304 0.64992,-0.654891 0.32496,-0.870431 0.32661,-1.076009 v -1.520348 l -0.2089,-0.63831 -0.44267,-0.65489 -0.761,-0.656555 -1.08762,-0.752706 -1.39102,-0.751056 -1.94479,-0.983168 -2.70578,-1.404293 -2.17192,-1.410915 -1.4988,-1.404292 -1.08927,-1.2932 -0.64661,-1.520348 -0.32827,-1.618169 v -1.734214 l 0.2089,-2.060842 0.44267,-2.276368 0.64329,-1.944787 0.76929,-1.618163 1.1755,-1.309786 1.41091,-1.080988 1.73588,-0.751051 2.14706,-0.445993 2.59635,-0.323304 z"
   id="path22"
   style="fill:#3e3d40;fill-opacity:1;stroke-width:1.65795" /><path
   d="m 337.922,41.494256 2.80361,0.09616 3.02411,0.441019 2.92131,0.639969 2.49523,0.653236 -1.29486,7.034702 -2.3858,-0.542148 -2.58973,-0.424434 -2.5947,-0.328272 -2.26975,-0.112742 h -1.96301 l -1.38605,0.232112 -0.87706,0.422779 -0.64329,0.865447 -0.33159,1.289896 -0.0912,1.197039 0.20891,0.865458 0.44101,0.752706 0.85385,0.772606 1.2932,0.747742 1.82873,0.983168 2.70744,1.407606 2.17358,1.289886 1.73091,1.19373 1.2932,1.084303 0.97488,1.193725 0.53386,1.19207 0.32827,1.294865 v 1.618163 l -0.10113,1.84862 -0.55044,2.486935 -0.65157,2.273059 -0.76101,1.846956 -1.17549,1.503772 -1.41092,1.19373 -1.82873,0.870422 -2.26476,0.65489 -2.7091,0.328283 -3.25291,0.09615 -2.36756,-0.09615 -2.49688,-0.328283 -2.58807,-0.540494 -2.38579,-0.656545 -2.14706,-0.747737 1.50376,-7.033053 3.23799,0.961618 3.67237,0.752711 3.79838,0.230452 1.73091,-0.11605 1.39102,-0.215536 0.87872,-0.323304 0.64328,-0.654891 0.44102,-0.870431 0.2089,-1.076009 0.10942,-0.868767 -0.10942,-0.651581 -0.2089,-0.63831 -0.44102,-0.65489 -0.761,-0.656555 -1.0843,-0.752706 -1.39434,-0.751056 -1.8453,-0.983168 -2.79697,-1.404293 -2.06747,-1.410915 -1.52201,-1.404292 -1.06772,-1.2932 -0.75935,-1.520348 -0.21055,-1.618169 -0.10943,-1.734214 0.20227,-2.060842 0.55873,-2.276368 0.53386,-1.944787 0.85219,-1.618163 1.09259,-1.309786 1.40429,-1.080988 1.82707,-0.751051 2.0625,-0.445993 2.58806,-0.323304 z"
   id="path26"
   style="fill:#3e3d40;fill-opacity:1;stroke-width:1.65795" /><path
   d="m 456.41608,41.494256 2.8235,0.09616 3.00421,0.441019 2.93624,0.639969 2.47865,0.653236 -1.29818,7.034702 -2.38083,-0.542148 -2.58972,-0.424434 -2.58641,-0.328272 -2.26974,-0.112742 h -1.94479 l -1.41258,0.232112 -0.87705,0.422779 -0.64329,0.865447 -0.3233,1.289896 -0.10114,1.197039 0.21057,0.865458 0.44101,0.752706 0.85219,0.772606 1.29486,0.747742 1.85193,0.983168 2.68921,1.407606 2.16861,1.289886 1.7309,1.19373 1.30315,1.084303 0.96659,1.193725 0.5405,1.19207 0.31998,1.294865 v 1.618163 l -0.0928,1.84862 -0.55873,2.486935 -0.64329,2.273059 -0.76929,1.846956 -1.17549,1.503772 -1.41092,1.19373 -1.82873,0.870422 -2.26477,0.65489 -2.70909,0.328283 -3.34741,0.09615 -2.26643,-0.09615 -2.50351,-0.328283 -2.58807,-0.540494 -2.3858,-0.656545 -2.14706,-0.747737 1.50377,-7.033053 3.23965,0.961618 3.68066,0.752711 3.78843,0.230452 1.7309,-0.11605 1.39103,-0.215536 0.87871,-0.323304 0.64329,-0.654891 0.43936,-0.870431 0.21056,-1.076009 0.11772,-0.868767 -0.11772,-0.651581 -0.21056,-0.63831 -0.43936,-0.65489 -0.761,-0.656555 -1.0843,-0.752706 -1.38771,-0.751056 -1.94313,-0.983168 -2.70578,-1.404293 -2.05918,-1.410915 -1.52863,-1.404292 -1.06939,-1.2932 -0.75934,-1.520348 -0.21056,-1.618169 -0.10776,-1.734214 0.2089,-2.060842 0.43272,-2.276368 0.65158,-1.944787 0.85385,-1.618163 1.09093,-1.309786 1.40429,-1.080988 1.83535,-0.751051 2.05421,-0.441015 2.58807,-0.328282 z"
   id="path30"
   style="fill:#3e3d40;fill-opacity:1;stroke-width:1.65795" /><path
   d="m 437.49715,41.590417 0.96991,8.341174 -3.02909,1.739198 -2.58807,1.616509 -2.59636,1.618163 -2.81355,1.735879 -3.45352,23.065474 h -9.41221 l 5.50275,-36.808266 8.12232,-1.193725 -0.2089,5.414879 2.15534,-1.522002 2.37751,-1.523657 2.47865,-1.289896 z"
   id="path34"
   style="fill:#3e3d40;fill-opacity:1;stroke-width:1.65795" /><path
   d="m 276.94572,52.95902 -0.6665,1.195385 -1.17715,1.077674 -1.62148,0.984823 -2.16695,0.747737 -1.62314,0.540494 -1.18544,0.328283 -0.8555,0.328272 -0.66484,0.213876 -0.53386,0.112742 -0.64661,0.215531 0.64661,-3.896196 0.31999,-1.638064 0.65157,-1.498788 0.87706,-1.198704 1.29486,-0.978189 1.50874,-0.542149 1.94478,-0.213876 1.61319,0.213876 1.29818,0.542149 0.87872,0.978189 0.21056,1.079334 z m 8.74903,-3.894531 -0.64329,-1.944787 -1.18544,-1.618163 -1.41589,-1.427496 -1.84033,-1.07602 -2.04095,-0.868767 -2.38248,-0.538839 -2.58806,-0.09616 -3.25623,0.09616 -2.69252,0.538839 -2.37917,0.769292 -2.06249,1.082643 -1.73091,1.284917 -1.41092,1.643037 -1.17715,1.828726 -0.85716,2.062492 -0.66815,2.369214 -0.53387,2.508495 -1.62148,11.368598 -0.3233,2.26974 v 2.158658 l 0.21388,1.949755 0.55044,1.732569 0.85384,1.525312 1.18379,1.288231 1.522,1.079334 1.94478,0.769287 2.26808,0.424438 2.81521,0.213876 3.77351,-0.326613 3.79837,-0.638319 3.79009,-1.077669 3.33083,-1.309786 2.93624,-1.621483 -2.17689,-7.033042 -3.02411,1.405946 -3.02909,1.198699 -2.92132,0.843903 -2.79697,0.65489 -2.58806,0.215536 -1.31974,-0.101134 -0.85716,-0.323304 -0.52723,-0.542149 -0.32496,-0.537175 -0.11771,-0.77427 v -0.863793 l 0.21055,-0.850531 0.23212,-1.846961 0.85053,-0.210562 0.761,-0.213877 0.86711,-0.232116 1.07767,-0.326618 1.50874,-0.426088 2.05421,-0.653236 3.46679,-1.19373 3.03737,-1.291551 2.47201,-1.410915 2.0625,-1.613195 1.50377,-1.740852 0.96658,-1.848621 0.6665,-2.158653 0.10279,-2.3858 z"
   id="path38"
   style="fill:#3e3d40;fill-opacity:1;stroke-width:1.65795" /></svg>
