<?xml version="1.0" encoding="UTF-8"?>
<svg id="Layer_2" data-name="Layer 2" xmlns="http://www.w3.org/2000/svg" viewBox="0 0 599.82 275.8">
  <defs>
    <style>
      .cls-1 {
        fill: #00999d;
      }
    </style>
  </defs>
  <g id="layer">
    <g>
      <path d="M237.82,221.2c0,3.8-3,6.8-6.7,6.8h-15.1v-13.8h15.2c3.7,0,6.6,3,6.6,7M231.12,201.7h-21.3c-3.3,0-6.1,2.8-6.1,6.2v54.3c0,3.5,2.7,6.3,6.1,6.3s6.1-2.8,6.1-6.3v-21.6h15.3c10.4,0,18.8-8.8,18.8-19.5s-8.5-19.4-18.9-19.4"/>
      <path d="M297.92,201.7c-3,0-6.1,2.2-6.1,6.2v38.4c0,6.2-4.9,11.3-10.9,11.3s-10.9-5.1-10.9-11.3v-38.4c0-4.1-3-6.2-6-6.2s-6.2,2.1-6.2,6.2v38.4c0,13.2,10.4,23.9,23.1,23.9s23.2-10.7,23.2-23.9v-38.4c-.1-4.1-3.2-6.2-6.2-6.2"/>
      <path d="M351.52,221.1c0,3.8-3.1,6.9-6.8,6.9h-15.1v-13.8h15.2c3.7,0,6.7,3.1,6.7,6.9M363.62,221.1c0-10.6-8.5-19.4-18.9-19.4h-21.3c-3.3,0-6.1,2.9-6.1,6.2v54.3c0,8.3,12.2,8.3,12.2,0v-21.6h5.2l17.7,25.3c1.2,1.7,2.9,2.6,4.9,2.6,3.3,0,6.2-2.9,6.2-6.3,0-1.3-.4-2.6-1.3-3.7l-12.9-18.5c8.6-2.3,14.3-9.9,14.3-18.9"/>
      <path d="M414.62,214.2c3.8,0,6.1-3.2,6.1-6.3,0-3.5-2.7-6.2-6.1-6.2h-34.1c-3.3,0-6.1,2.8-6.1,6.2v54.3c0,3.4,2.8,6.3,6.1,6.3h34.1c3.4,0,6.1-2.8,6.1-6.3s-2.7-6.3-6.1-6.3h-28v-16.8h18.2c3.4,0,6-2.8,6-6.3s-2.7-6.3-6-6.3h-18.2v-12.2h28v-.1Z"/>
      <path d="M476.72,231.4h-10.9c-4,0-6.1,3.3-6.1,6.4s2.3,6.3,6.3,6.3h3.9c-1.7,9.1-6.2,13.5-13.7,13.5-9.7,0-14.4-7.3-14.4-22.4s4.7-22.4,14.4-22.4c4.9,0,8.2,1.6,10.5,5,1.1,1.8,2.8,2.7,4.8,2.7,3.4,0,6.4-2.9,6.4-6.3,0-1.2-.4-2.5-1.3-3.6-4.6-6.9-11.4-10.4-20.4-10.4-16.7,0-26.6,13.1-26.6,35s9.8,35,26.8,35c19.4,0,26.3-16.6,26.3-32.1v-.7c-.1-3.7-2.5-6-6-6"/>
      <path d="M526.22,201.7c-2.2,0-4.1,1.2-5.3,3.3l-11.2,21.5-11.1-21.5c-1.1-2.1-3-3.3-5.3-3.3-3,0-6.3,2.4-6.3,6,0,.9.1,2.1.8,3.3l15.7,30.4v20.9c0,4.1,3.1,6.3,6.1,6.3s6.1-2.1,6.1-6.3v-20.7l15.9-30.5c.6-1,.9-2.1.9-3.2.1-3.7-3.2-6.2-6.3-6.2"/>
      <path d="M593.52,201.3c-2.2,0-3.9,1.3-5.4,4l-17.4,33.3-17.3-33.2c-1.5-2.7-3.2-4-5.4-4-4,0-6.5,2.6-6.5,7.1v53.7c0,8.3,12.2,8.3,12.2,0v-29.4l11.1,21.2c1.4,3,3.2,4.3,5.8,4.3s4.3-1.3,5.9-4.2l11.1-21.3v29.5c0,4.1,3.1,6.3,6.1,6.3s6.1-2.2,6.1-6.3v-53.8c.1-4.5-2.3-7.2-6.3-7.2"/>
      <path d="M110.82,15.5h-31c-19.5,0-37.2,6.9-48.7,19-11.1,11.6-16.5,27.8-16.2,47.9v119.2c0,51.7,14.3,58.9,29.7,58.9,17.9,0,24-14.7,29.2-31.1l.3-.9c11.7-36.6,32.4-57.5,69.4-69.9,20.3-6.8,31.5-18.3,32.2-59.6v-17.3c.1-19.3-6-36.3-17.2-48-11.4-12-27.9-18.2-47.7-18.2M44.62,275.8C.02,275.8.02,223.8.02,201.5v-119c-.4-24.3,6.5-44.2,20.5-58.9C34.82,8.6,56.42,0,79.82,0h31c23.9,0,44.1,7.8,58.3,22.6,14,14.6,21.7,35.5,21.5,58.9v17.4c-.8,43.4-12.7,64.2-42.5,74.1-32.7,10.9-49.5,27.8-59.8,60l-.3.9c-4.3,13.7-13.3,41.9-43.4,41.9"/>
      <path class="cls-1" d="M146.22,268.3c18.4,0,33.3-14.9,33.3-33.3s-14.9-33.3-33.3-33.3-33.3,14.9-33.3,33.3,14.9,33.3,33.3,33.3"/>
    </g>
  </g>
</svg>