<svg xmlns:xlink="http://www.w3.org/1999/xlink" xmlns="http://www.w3.org/2000/svg" width="297" height="136" viewBox="0 0 297 136" aria-hidden="true" role="" data-testid="logo" class="css-uk6cul e1iy273e0"><defs><polygon id="path-1" points="0 0 136 0 136 136 0 136"></polygon><polygon id="path-1" points="0 0 136 0 136 136 0 136"></polygon></defs><g id="logo/tgg/stacked/negativedarkblue" data-testid="logo/tgg/stacked/negativedarkblue" stroke="none" stroke-width="1" fill="none" fill-rule="evenodd"><g id="tgg_Logo_RGB_Stacked_Secondary" fill="none"><path d="M245.90491,75.3056876 L245.90491,59.8952455 C245.90491,57.2894307 247.869671,55.204841 250.590037,55.204841 C253.310714,55.204841 255.199728,57.2894307 255.199728,59.8952455 L255.199728,75.3056876 L263.05815,75.3056876 L263.05815,60.0439452 C263.05815,52.5993367 258.902319,47.909553 250.96815,47.909553 C247.114376,47.909553 243.638093,49.9196377 242.202629,52.0787325 C240.690797,49.3984127 238.046488,47.909553 234.645953,47.909553 C232.001023,47.909553 229.507897,48.9520031 228.071501,50.5150574 L228.071501,48.5052831 L207.518036,48.5052831 L207.518036,62.6500704 C207.518036,65.9996941 205.402092,68.0097788 202.37967,68.0097788 C199.356627,68.0097788 197.240993,65.9996941 197.240993,62.6500704 L197.240993,55.6518714 C197.240993,49.7706276 193.538712,45.3785538 186.586458,45.3785538 C182.732683,45.3785538 179.180654,47.2396283 177.594007,50.2173475 C175.478373,48.7284879 172.758007,47.909553 169.811021,47.909553 C161.271809,47.909553 155.377837,53.7159814 155.377837,61.6076203 C155.377837,69.4986384 161.271809,75.3056876 169.584401,75.3056876 C172.22871,75.3056876 174.496458,74.6348316 175.931612,73.3694872 L175.931612,75.1563671 C175.931612,78.5059908 173.740542,81.2608157 169.962204,81.2608157 C166.334739,81.2608157 164.294852,78.8788265 163.765556,76.3472064 L156.435499,78.5811167 C158.17364,84.2388454 162.934824,88.1100045 169.962204,88.1100045 C178.652289,88.1100045 183.790345,81.9307404 183.790345,74.2632375 L183.790345,55.4283562 C183.790345,53.939807 185.075247,52.6741522 186.586458,52.6741522 C188.097669,52.6741522 189.382261,53.939807 189.382261,55.4283562 L189.382261,63.09648 C189.382261,71.4339076 193.916515,75.3056876 201.170515,75.3056876 C204.042064,75.3056876 206.006825,74.4119372 207.518036,72.7740675 L207.518036,75.2305617 C207.518036,79.2510415 205.477839,81.2608157 201.69919,81.2608157 C198.299276,81.2608157 196.334515,78.9530212 195.502852,76.2730118 L188.399725,78.5059908 C189.759753,83.8666304 194.067698,88.1100045 201.69919,88.1100045 C209.482797,88.1100045 215.376769,82.8241804 215.376769,74.7844626 L215.376769,55.3541616 L220.968374,55.3541616 L220.968374,75.3056876 L228.827417,75.3056876 L228.827417,59.8952455 C228.827417,57.2894307 230.640995,55.204841 233.436797,55.204841 C236.233221,55.204841 238.046488,57.2894307 238.046488,59.8952455 L238.046488,75.3056876 L245.90491,75.3056876 Z M169.584401,68.0097788 C166.032683,68.0097788 163.23688,65.1807592 163.23688,61.6076203 C163.23688,58.034171 166.032683,55.204841 169.584401,55.204841 C173.13581,55.204841 175.931612,58.034171 175.931612,61.6076203 C175.931612,65.1807592 173.13581,68.0097788 169.584401,68.0097788 L169.584401,68.0097788 Z M202.001867,95.7778179 C199.659304,95.7778179 197.165557,96.8944626 196.183332,98.5320219 C194.596063,95.3307874 191.347022,93.2465081 186.586458,93.2465081 C182.732683,93.2465081 179.180654,95.1078931 177.594007,98.0856123 C175.478373,96.5964423 172.758007,95.7778179 169.811021,95.7778179 C161.271809,95.7778179 155.377837,101.584246 155.377837,109.475575 C155.377837,117.366593 161.271809,123.173332 169.584401,123.173332 C172.22871,123.173332 174.496458,122.503096 175.931612,121.237752 L175.931612,123.024321 C175.931612,126.374256 173.740542,129.12908 169.962204,129.12908 C166.334739,129.12908 164.294852,126.746781 163.765556,124.215471 L156.435499,126.448761 C158.17364,132.106489 162.934824,135.977959 169.962204,135.977959 C178.274486,135.977959 183.790345,129.799005 183.790345,122.131192 L183.790345,103.296621 C183.790345,101.807451 185.075247,100.542107 186.586458,100.542107 C188.097669,100.542107 189.382261,101.807451 189.382261,103.296621 L189.382261,123.173332 L197.240993,123.173332 L197.240993,107.688695 C197.240993,104.339071 198.904009,102.775396 201.69919,102.775396 C202.682036,102.775396 203.739698,103.1473 204.419867,103.668836 L207.593783,97.4156876 C206.233445,96.3732375 204.646487,95.7778179 202.001867,95.7778179 L202.001867,95.7778179 Z M220.515135,95.7778179 C211.976544,95.7778179 206.308881,101.732946 206.308881,109.773285 C206.308881,117.813313 211.976544,123.769062 220.515135,123.769062 C229.054037,123.769062 234.721699,117.813313 234.721699,109.773285 C234.721699,101.732946 229.054037,95.7778179 220.515135,95.7778179 L220.515135,95.7778179 Z M283.536799,95.7778179 C280.287758,95.7778179 277.340461,97.0431623 275.82925,98.6813425 L275.82925,96.3732375 L255.275475,96.3732375 L255.275475,111.187639 C255.275475,114.612389 253.386461,116.473463 250.590037,116.473463 C247.794235,116.473463 245.90491,114.612389 245.90491,111.187639 L245.90491,96.3732375 L238.046488,96.3732375 L238.046488,112.304284 C238.046488,119.748892 242.807362,123.769062 249.230009,123.769062 C252.328178,123.769062 254.821615,122.726922 256.03108,121.163557 L256.03108,123.173332 L263.133897,123.173332 L263.133897,103.222116 L268.726123,103.222116 L268.726123,135.462011 L276.584545,135.462011 L276.584545,121.237752 C277.944884,122.577601 280.287758,123.769062 283.536799,123.769062 C290.11094,123.769062 297.138321,119.674387 297.138321,109.773285 C297.138321,99.8718714 290.11094,95.7778179 283.536799,95.7778179 L283.536799,95.7778179 Z M169.584401,115.877733 C166.032683,115.877733 163.23688,113.048714 163.23688,109.475575 C163.23688,105.902125 166.032683,103.073106 169.584401,103.073106 C173.13581,103.073106 175.931612,105.902125 175.931612,109.475575 C175.931612,113.048714 173.13581,115.877733 169.584401,115.877733 L169.584401,115.877733 Z M220.515135,116.473463 C216.66105,116.473463 214.167303,113.569939 214.167303,109.773285 C214.167303,105.97632 216.66105,103.073106 220.515135,103.073106 C224.36891,103.073106 226.862656,105.97632 226.862656,109.773285 C226.862656,113.569939 224.36891,116.473463 220.515135,116.473463 L220.515135,116.473463 Z M282.932067,116.473463 C279.078292,116.473463 276.584545,113.569939 276.584545,109.773285 C276.584545,105.97632 279.078292,103.073106 282.932067,103.073106 C286.786152,103.073106 289.279898,105.97632 289.279898,109.773285 C289.279898,113.569939 286.786152,116.473463 282.932067,116.473463 L282.932067,116.473463 Z M160.59195,26.9907028 C160.59195,34.509506 164.067922,38.4548598 170.944119,38.4548598 C172.380515,38.4548598 173.437866,38.2316551 174.496148,37.7849351 L174.496148,30.7870465 C173.815979,31.308582 172.984626,31.4569713 172.002712,31.4569713 C169.811021,31.4569713 168.450683,30.1171218 168.450683,27.7354431 L168.450683,18.0572347 L173.815979,18.0572347 C175.55381,18.0572347 176.763275,17.5360096 177.367387,16.4941804 L177.367387,37.8591297 L185.22643,37.8591297 L185.22643,22.9705335 C185.22643,19.6209098 187.41781,17.7595248 190.213613,17.7595248 C193.009726,17.7595248 195.200796,19.6209098 195.200796,22.9705335 L195.200796,37.8591297 L203.059529,37.8591297 L203.059529,22.3751138 C203.059529,14.6331059 198.374712,10.4639264 191.498205,10.4639264 C189.004458,10.4639264 186.132908,11.6550762 185.22643,12.9207311 L185.22643,0.265113869 L177.367387,0.265113869 L177.367387,8.00712181 C177.367387,9.9427014 176.309415,11.0596566 174.344654,11.0596566 L168.450683,11.0596566 L168.450683,4.35978826 L160.59195,4.35978826 L160.59195,9.04957189 C160.59195,10.2407217 159.91147,11.0596566 158.627189,11.0596566 L155.377837,11.0596566 L155.377837,18.0572347 L160.59195,18.0572347 L160.59195,26.9907028 Z M220.194763,38.4548598 C226.920087,38.4548598 230.773862,35.6261507 232.738002,31.308582 L226.239608,28.0325321 C224.87958,30.4151421 223.066313,31.8294966 220.194763,31.8294966 C216.793917,31.8294966 214.376228,29.4475075 214.149608,26.3207781 L233.947468,26.3207781 C234.023214,25.725048 234.023214,25.1293179 234.023214,24.5338982 C234.023214,16.4196754 229.413834,10.4639264 220.194763,10.4639264 C211.957917,10.4639264 205.987888,16.1216551 205.987888,24.2361884 C205.987888,32.4252267 211.655861,38.4548598 220.194763,38.4548598 L220.194763,38.4548598 Z M220.194763,16.7918903 C223.519241,16.7918903 225.181946,18.8013541 225.710622,21.3329742 L214.451043,21.3329742 C215.055776,18.8013541 216.94479,16.7918903 220.194763,16.7918903 L220.194763,16.7918903 Z" id="Fill-1" fill="#FFFFFF"></path><g id="Group-6" fill="none"><mask id="mask-2" fill="#FFFFFF"><use xlink:href="#path-1"></use></mask><g id="Clip-4" fill="none"></g><path d="M67.2488958,70.4311935 C58.4914458,70.4311935 51.5972435,63.3513494 51.5972435,54.4073263 C51.5972435,45.4636137 58.4914458,38.3831487 67.2488958,38.3831487 C76.0060353,38.3831487 82.9002376,45.4636137 82.9002376,54.4073263 C82.9002376,63.3513494 76.0060353,70.4311935 67.2488958,70.4311935 Z M109.172277,13.9746674 C99.6694659,13.7880943 90.912016,18.4465237 86.9992581,25.8992036 C81.7820407,22.1730188 75.0744115,20.1235086 67.8076838,20.1235086 C46.7528618,20.1235086 32.2194065,34.656964 32.2194065,54.4073263 C32.2194065,74.1583096 46.7528618,88.6914545 67.2488958,88.6914545 C73.7702623,88.6914545 79.3600051,87.0144696 82.9002376,83.8470729 L82.9002376,88.3189292 C82.9002376,96.7035433 77.4964471,103.597746 68.1805196,103.597746 C59.236807,103.597746 54.2058522,97.6351671 52.9013926,91.3000632 L34.8277047,96.8894956 C39.1132984,111.050426 50.8521928,120.739499 68.1805196,120.739499 C89.6075564,120.739499 102.278075,105.27442 102.278075,86.0831562 L102.278075,49.0038462 C102.278075,37.638098 108.240343,32.0483553 116.624957,32.0483553 C123.691763,32.0483553 128.345536,36.3171852 131.327601,43.1877943 C126.76044,31.5426521 119.074932,21.4633581 109.298004,13.9774613 C109.288381,13.9771509 109.23126,13.9755987 109.172277,13.9746674 L109.172277,13.9746674 Z" id="Fill-3" fill="#0050EF" mask="url(#mask-2)"></path><path d="M-0.0152114515,68.0094684 L-0.0152114515,68.0091579 C-0.0152114515,68.0367869 -0.0145905759,68.0641054 -0.0145905759,68.0914239 C-0.0145905759,68.0641054 -0.0152114515,68.0367869 -0.0152114515,68.0094684 Z M131.327601,43.1877943 C128.345536,36.3171852 123.691763,32.0483553 116.624957,32.0483553 C108.240343,32.0483553 102.278075,37.638098 102.278075,49.0038462 L102.278075,86.0831562 C102.278075,105.27442 89.6075564,120.739499 68.1805196,120.739499 C50.8521928,120.739499 39.1132984,111.050426 34.8277047,96.8894956 L52.9013926,91.3000632 C54.2058522,97.6351671 59.236807,103.597746 68.1805196,103.597746 C77.4964471,103.597746 82.9002376,96.7035433 82.9002376,88.3189292 L82.9002376,83.8470729 C79.3600051,87.0144696 73.7702623,88.6914545 67.2488958,88.6914545 C46.7528618,88.6914545 32.2194065,74.1583096 32.2194065,54.4073263 C32.2194065,34.656964 46.7528618,20.1235086 67.8076838,20.1235086 C75.0744115,20.1235086 81.7820407,22.1730188 86.9992581,25.8992036 C90.912016,18.4465237 99.6694659,13.7880943 109.172277,13.9746674 C109.23126,13.9755987 109.288381,13.9771509 109.298004,13.9777717 C97.8465753,5.20976692 83.5273219,0 67.9908421,0 C30.4300431,0 -0.0186262671,30.4486693 -0.0186262671,68.0094684 C-0.0186262671,105.569957 30.4300431,136.018626 67.9908421,136.018626 C105.551331,136.018626 136,105.569957 136,68.0094684 C136,59.2498454 134.343504,50.8776487 131.327601,43.1877943 L131.327601,43.1877943 Z" id="Fill-5" fill="#B2FF00" mask="url(#mask-2)"></path></g><path d="M51.5972435,54.4073263 C51.5972435,63.3513494 58.4914458,70.4311935 67.2488958,70.4311935 C76.0060353,70.4311935 82.9002376,63.3513494 82.9002376,54.4073263 C82.9002376,45.4636137 76.0060353,38.3831487 67.2488958,38.3831487 C58.4914458,38.3831487 51.5972435,45.4636137 51.5972435,54.4073263" id="Fill-7" fill="#B2FF00"></path></g></g></svg>